<?xml version="1.0" encoding="UTF-8" standalone="no"?>
<!-- Created with Inkscape (http://www.inkscape.org/) -->

<svg
   version="1.1"
   id="svg2"
   width="1024"
   height="1024"
   viewBox="0 0 1024 1024"
   sodipodi:docname="calendarcustom.svg"
   inkscape:version="1.2.2 (732a01da63, 2022-12-09)"
   inkscape:export-filename="customcal2.svg"
   inkscape:export-xdpi="96"
   inkscape:export-ydpi="96"
   xmlns:inkscape="http://www.inkscape.org/namespaces/inkscape"
   xmlns:sodipodi="http://sodipodi.sourceforge.net/DTD/sodipodi-0.dtd"
   xmlns="http://www.w3.org/2000/svg"
   xmlns:svg="http://www.w3.org/2000/svg">
  <defs
     id="defs6" />
  <sodipodi:namedview
     id="namedview4"
     pagecolor="#ffffff"
     bordercolor="#000000"
     borderopacity="0.25"
     inkscape:showpageshadow="2"
     inkscape:pageopacity="0.0"
     inkscape:pagecheckerboard="0"
     inkscape:deskcolor="#d1d1d1"
     showgrid="false"
     inkscape:zoom="0.27587891"
     inkscape:cx="-77.932743"
     inkscape:cy="300.85664"
     inkscape:window-width="1304"
     inkscape:window-height="745"
     inkscape:window-x="-8"
     inkscape:window-y="-8"
     inkscape:window-maximized="1"
     inkscape:current-layer="g8" />
  <g
     inkscape:groupmode="layer"
     inkscape:label="Image"
     id="g8">
    <g
       id="g10417">
      <path
         style="fill:#bbcbd6"
         d="m 123.90175,857.25 c -0.054,-13.0625 -0.16653,-39.37626 -0.25,-58.47502 L 123.5,764.04997 l 57,0.22501 57,0.22502 0.25806,58.25 0.25806,58.25 H 181.00806 124 l -0.0982,-23.75 z m 137.31351,-113.99217 -1.28475,-0.44766 0.10963,-58.40508 L 260.14977,626 H 320.07488 380 v 59.05902 59.05903 l -58.75,-0.20628 c -32.3125,-0.11346 -59.32814,-0.40773 -60.03474,-0.65394 z m 0.0133,-274.09543 -1.27147,-0.80698 0.27147,-56.42771 L 260.5,355.5 l 58.5,-0.26079 58.5,-0.2608 1.25,1.70193 1.25,1.70192 v 54.22708 c 0,29.8249 -0.27314,54.93889 -0.60699,55.80887 L 378.78602,470 320.64301,469.9847 c -31.97865,-0.008 -58.71517,-0.37846 -59.41449,-0.82229 z"
         id="path10427" />
      <path
         style="fill:#d29544"
         d="m 111,943.44755 c -0.825,-0.17624 -3.75,-0.62931 -6.5,-1.00681 l -5,-0.68636 2,-0.89104 2,-0.89105 -2.75,0.37518 -2.75,0.37519 v -1.29394 c 0,-0.71167 -0.906534,-1.58167 -2.014521,-1.93333 -1.107986,-0.35166 -1.788048,-1.00582 -1.511247,-1.4537 0.746213,-1.2074 -3.145261,-1.97066 -4.277036,-0.83889 l -0.971461,0.97146 -0.773193,-1.33713 c -0.425256,-0.73542 -0.40495,-1.00353 0.04512,-0.59581 0.450074,0.40773 1.333429,0.31382 1.96301,-0.20868 l 1.144694,-0.95001 2.626626,1.36271 c 1.444644,0.74949 2.920936,1.0684 3.280649,0.70868 0.359712,-0.35971 0.504023,0.021 0.320689,0.84598 l -0.33333,1.5 4.32033,-0.10249 c 2.37619,-0.0564 3.93613,0.16864 3.46655,0.5 -1.03921,0.73333 -1.05853,2.66418 -0.0369,3.68582 0.4125,0.4125 0.75,0.0839 0.75,-0.73026 v -1.48026 l 33.75,0.30785 c 18.5625,0.16932 201.4875,0.52215 406.5,0.78406 l 372.75,0.47621 v -0.97046 C 919,939.43671 919.47656,939 920.05902,939 c 0.58246,0 0.74482,0.50838 0.3608,1.12973 -0.38402,0.62135 -0.29807,0.94711 0.19098,0.72391 5.18317,-2.36554 9.3655,-4.35532 11.64125,-5.53842 1.51363,-0.7869 3.27066,-1.1102 3.90451,-0.71846 0.68412,0.42281 0.8817,0.27416 0.48619,-0.36578 -0.78373,-1.26811 4.74561,-5.50929 5.80346,-4.45143 0.39625,0.39625 0.57771,0.27045 0.40324,-0.27955 -0.17446,-0.55 1.8118,-3.17753 4.41392,-5.83895 l 4.73113,-4.83895 0.59136,1.54106 c 0.32525,0.84759 0.25696,2.08214 -0.15176,2.74346 l -0.74312,1.2024 1.0691,-0.66074 c 0.58801,-0.36341 1.2786,-0.0954 1.53465,0.59549 0.60421,1.63036 -7.17816,9.73819 -8.76339,9.12988 -0.666,-0.25557 -1.84551,0.34331 -2.62113,1.33084 L 941.5,936.5 l 2,-1.5 2,-1.5 -1.32311,1.69056 c -1.3908,1.77703 -4.63634,1.36186 -3.51664,-0.44985 l 0.64877,-1.04973 -1.20307,0.74354 -1.20307,0.74354 1.29856,1.57469 L 941.5,938.32744 939,937 936.5,935.67256 938,937.5 939.5,939.32744 937,938 934.5,936.67256 936,938.5 937.5,940.32744 935,939 l -2.5,-1.32744 1.39144,1.68661 1.39145,1.68661 -1.80549,-0.69283 -1.80549,-0.69283 0.72306,1.16994 c 0.86062,1.3925 -0.31942,1.50341 -2.34722,0.22061 -0.79874,-0.50529 -1.89387,-0.64577 -2.43363,-0.31218 -0.53975,0.33358 -0.11124,0.94726 0.95226,1.36373 l 1.93362,0.75721 -2.05,0.0703 c -1.1275,0.0387 -2.5825,-0.46221 -3.23333,-1.11304 -0.65084,-0.65084 -1.5153,-0.85137 -1.92104,-0.44563 -0.40574,0.40574 -0.0757,1.15635 0.73333,1.66802 L 925.5,943.96937 519,943.86869 c -223.575,-0.0554 -407.175,-0.24489 -408,-0.42114 z m -30.16447,-15.217 c -2.384542,-2.4857 -3.714651,-4.16682 -2.955798,-3.73581 l 1.379732,0.78365 -0.404732,-1.21419 c -0.222603,-0.66781 -0.843482,-1.21252 -1.379732,-1.21046 -1.860851,0.007 -4.337438,-3.04865 -3.737622,-4.61174 l 0.602499,-1.57009 -1.194715,0.73837 c -0.657093,0.40611 -1.130276,0.36743 -1.051518,-0.0859 0.442689,-2.54837 -0.304891,-4.33386 -1.843644,-4.40328 -0.9625,-0.0434 -1.21278,-0.29749 -0.556177,-0.56461 0.656603,-0.26711 0.931479,-1.16931 0.610836,-2.00489 l -0.582986,-1.51924 -0.836237,1.33384 -0.836237,1.33385 0.413095,-3.33308 0.413095,-3.33308 -1.339158,0.51388 c -0.76246,0.29259 -1.556753,-0.31819 -1.844436,-1.4183 l -0.505277,-1.93218 1.07668,0.66543 1.076679,0.66542 -0.669938,-1.74583 C 66.301472,900.62205 66,899.62167 66,899.3592 c 0,-0.26248 -0.520886,-0.15531 -1.157524,0.23815 l -1.157523,0.71539 0.564265,-2.15775 0.564264,-2.15775 -1.013875,0.62661 -1.013875,0.62661 0.714146,-2.25008 0.714146,-2.25007 -1.357012,-0.83902 L 61.5,891.07227 V 612.03618 333.0001 l 2.75,-5e-5 2.75,-5e-5 0.01478,276.75 0.01478,276.75 1.471743,6.24199 c 0.809459,3.4331 1.876515,7.0331 2.371235,8 0.494721,0.96691 1.944552,4.23301 3.221848,7.25801 1.277296,3.025 3.131773,6.69894 4.12106,8.16431 l 1.798704,2.66431 -1.257076,0.46069 L 77.5,919.75 l 1.288394,1.36339 c 0.708617,0.74987 2.058617,1.36862 3,1.375 0.999103,0.007 1.65604,0.72659 1.578123,1.72918 l -0.133483,1.71756 2.02325,-0.21756 C 86.369072,925.5979 87.475899,926.175 87.715899,927 l 0.436363,1.5 -0.828679,-1.15863 c -0.909776,-1.27202 -6.60541,-0.60639 -5.810932,0.6791 0.269137,0.43547 1.388893,0.55653 2.488345,0.26902 C 85.118295,927.99731 86,928.25925 86,928.88337 86,929.49752 85.523442,930 84.940983,930 c -0.582459,0 -0.783993,0.445 -0.447853,0.98888 l 0.611165,0.98889 2.697852,-1.72162 2.697853,-1.72163 -1.291738,1.6355 -1.291738,1.63549 1.291738,0.45251 c 0.710456,0.24888 0.09273,0.46139 -1.372732,0.47224 l -2.66447,0.0197 -4.33553,-4.51945 z m 872.83648,-7.18621 -1.51799,-3.04288 4.35681,-8.468 c 2.39624,-4.6574 4.66199,-10.50313 5.035,-12.99052 0.37301,-2.48738 1.04911,-4.29328 1.50245,-4.0131 0.87477,0.54064 0.95139,-22.5405 1.16555,-351.11317 l 0.13628,-209.08334 H 965.67506 967 l -0.0153,284.08334 -0.0153,284.08333 -0.90847,-1.4357 -0.90847,-1.4357 -1.57621,1.30815 C 962.7093,899.65623 962,900.7258 962,901.31357 c 0,0.58778 0.71174,0.19518 1.58164,-0.87244 l 1.58163,-1.94113 -0.70074,2 c -0.88083,2.51397 -0.87874,3.50104 0.0127,6 l 0.71344,2 -1.07901,-1.5 c -0.59347,-0.825 -1.13077,-1.05 -1.19402,-0.5 -0.0632,0.55 -0.51404,-0.125 -1.00178,-1.5 l -0.88679,-2.5 0.48257,3.35549 0.48257,3.35549 -1.46408,-0.56181 c -0.80524,-0.309 -1.77301,-0.062 -2.1506,0.54901 -0.40013,0.64742 -0.23373,0.83098 0.39887,0.44002 0.59698,-0.36895 1.36807,-0.21348 1.71353,0.34549 0.34546,0.55897 -0.12854,1.01631 -1.05335,1.01631 h -1.68146 l 1.24489,1.5 c 0.68469,0.825 0.90969,1.5 0.5,1.5 -0.40969,0 -0.12729,0.76138 0.62756,1.69196 0.75484,0.93058 0.86093,1.38553 0.23575,1.01101 -1.49006,-0.89264 -3.74368,1.86342 -3.03463,3.71118 0.30384,0.79179 -0.0531,1.94215 -0.79313,2.55634 l -1.34556,1.11672 -1.51798,-3.04287 z M 94.24135,616.04516 94.5,334.08455 92,333.69211 c -1.375,-0.21585 -0.304986,-0.45987 2.377808,-0.54228 L 99.255616,333 l -0.707657,4.25 c -0.389212,2.3375 -0.669507,128.9 -0.622877,281.25 0.04663,152.35 -0.254938,277.45 -0.670151,278 -0.415212,0.55 -1.321323,1.1138 -2.013581,1.25288 l -1.258649,0.25289 z m 167.33154,261.2842 c -0.35598,-0.92767 -0.59287,-26.12032 -0.52642,-55.98366 l 0.12081,-54.297 10.66636,0.61044 c 12.92297,0.73958 14.21385,1.28323 3.58303,1.50897 l -7.91667,0.16811 6,0.66378 6,0.66378 -6.16667,0.16811 -6.16666,0.16811 -0.50439,-1.25 c -0.27741,-0.6875 -0.53302,23.05 -0.56802,52.75 l -0.0636,54 L 267,875 c 0.53316,-0.825 0.97623,-1.05 0.98461,-0.5 l 0.0152,1 51.92618,-0.14531 c 28.55939,-0.0799 52.42058,-0.45086 53.02485,-0.82433 0.60428,-0.37346 1.03424,-0.30807 0.95549,0.14531 -0.0788,0.45338 -0.0762,1.49933 0.006,2.32433 l 0.14883,1.5 1.02371,-1.75792 c 0.56304,-0.96686 0.70483,-2.27388 0.31508,-2.90451 l -0.70863,-1.14659 1.26165,0.77974 1.26164,0.77974 -0.55427,-1.87523 c -0.30485,-1.03138 -0.67553,-24.44934 -0.82373,-52.03993 l -0.26946,-50.1647 -6.414,-0.0492 c -3.5277,-0.0271 -6.66959,-0.30483 -6.982,-0.61723 -0.3124,-0.3124 2.01629,-0.48355 5.17486,-0.38034 3.26298,0.10663 6.24193,-0.31141 6.89859,-0.96807 1.53987,-1.53987 4.74715,-1.47675 4.78921,0.0943 0.19287,7.20372 -0.19384,106.756 -0.4205,108.25 l -0.30343,2 -58.04471,0.25801 -58.0447,0.25801 -0.64724,-1.68666 z m 142.0757,0.19725 c -0.31097,-0.81036 -0.47162,-25.89786 -0.35699,-55.75 L 403.5,767.5 l 5.5,0.10078 c 25.29255,0.46345 101.84645,0.2875 105.15577,-0.24168 l 4.1767,-0.66788 -0.65478,1.70633 c -0.38821,1.01166 -0.25233,1.4576 0.33376,1.09537 L 519,768.88197 l -0.0703,4.30901 -0.0703,4.30902 -0.85943,-2 c -0.49313,-1.14757 -0.8126,18.45823 -0.74956,46 0.0604,26.4 0.39773,44.625 0.74956,40.5 l 0.63968,-7.5 0.18016,9.66667 0.18016,9.66666 -1.25,0.50439 -1.25,0.50439 1.25847,0.0789 1.25848,0.0789 -1.24902,2 -1.24902,2 h -56.15247 -56.15246 l -0.56539,-1.47339 z m 110.8603,-3.3584 C 514.229,873.43573 514,849.76726 514,821.57161 V 770.3068 l -10.75,-0.0623 c -5.9125,-0.0342 -15.475,-0.0858 -21.25,-0.1145 -5.775,-0.0287 -11.175,-0.10146 -12,-0.16164 -0.825,-0.0602 -5.1,-0.24291 -9.5,-0.40608 l -8,-0.29668 7,0.74402 7,0.74402 -28.31178,-0.12683 c -15.57149,-0.0698 -27.27149,0.16581 -26,0.52349 l 2.31178,0.65032 -3.30902,0.0997 L 407.88197,772 408.5,771 c 0.33992,-0.55 0.15696,-1 -0.40658,-1 h -1.02461 l -0.0233,52.34446 c -0.0277,62.21896 -9.21443,53.23893 54.41813,53.19365 l 53.55411,-0.0381 -0.50888,-1.33179 z m 28.0981,3.25 C 542.27314,876.54823 542,851.40636 542,821.54739 v -54.28903 l 22.25,0.50586 c 12.71116,0.289 22.51794,0.92245 22.875,1.47759 l 0.625,0.97172 0.6941,-1.12308 c 0.38175,-0.61769 1.12034,-0.85964 1.64131,-0.53766 0.52097,0.32197 0.67498,1.02589 0.34225,1.56426 l -0.60497,0.97886 -20.66134,-0.44936 c -11.42974,-0.24858 -19.76774,-0.078 -18.66135,0.38176 l 2,0.83112 -2.759,0.0703 -2.759,0.0703 0.259,51.73957 0.259,51.73957 54.72663,-0.19253 54.72664,-0.19254 0.96833,1.70297 0.96833,1.70296 0.0281,-2 c 0.48179,-34.27871 0.68745,-99.98012 0.32162,-102.75 l -0.49528,-3.75 h -4.81317 c -2.64725,0 -5.04222,-0.37061 -5.32217,-0.82357 -0.45555,-0.73709 2.4582,-1.11466 11.89096,-1.54088 l 3,-0.13555 0.25854,54.75285 0.25854,54.75284 -1.25854,-0.25284 c -0.6922,-0.13907 -1.14604,0.30965 -1.00854,0.99715 l 0.25,1.25 h -59.39301 -59.39301 l -0.60699,-1.58179 z M 688.49234,876.75 c -0.30017,-1.2375 -0.42125,-26.325 -0.26905,-55.75 l 0.27671,-53.5 5.5,0.12478 c 3.025,0.0686 15.46171,0.17423 27.63713,0.23468 l 22.13713,0.10989 0.61196,1.59473 0.61195,1.59474 -18.74908,-0.49972 c -16.74818,-0.44638 -26.19116,-0.53837 -31.49909,-0.30686 l -1.75,0.0763 v 51.8927 51.89271 l 1.55194,-0.59554 c 0.88992,-0.34149 1.29132,-0.17385 0.94098,0.39301 L 694.88197,875 l 7.30901,0.18137 c 4.01996,0.0998 12.45901,0.10227 18.75345,0.006 l 11.44443,-0.17579 0.79026,1.24442 c 0.43464,0.68443 0.79715,0.7903 0.80557,0.23525 l 0.0153,-1.00916 33.40451,0.009 c 18.37248,0.005 33.22975,-0.27359 33.01616,-0.6192 -0.2136,-0.3456 -0.41002,-23.9706 -0.43649,-52.5 l -0.0481,-51.87163 -14.21802,0.31973 c -12.70771,0.28577 -25.46642,-0.40466 -24.54295,-1.32813 0.74818,-0.74818 10.11126,-1.48929 26.07493,-2.06388 l 16.75,-0.6029 v 54.65902 54.65902 l -1.42857,1.42857 -1.42857,1.42857 h -56.05238 -56.05238 l -0.54576,-2.25 z m 139.87962,0.77692 c -0.31091,-0.8102 -0.40928,-25.89601 -0.21862,-55.74625 L 828.5,767.50751 869,767.84578 c 22.275,0.18606 42.5149,0.7079 44.97755,1.15965 2.48963,0.45671 5.20988,0.42944 6.12706,-0.0614 1.81946,-0.97375 7.93041,-0.81783 7.31274,0.18658 -0.21329,0.34683 -1.50583,0.84432 -2.87231,1.10554 l -2.48452,0.47495 0.63379,-1.02549 0.63378,-1.02548 -1.91405,0.91994 c -1.06559,0.51216 -20.54474,0.94427 -43.94384,0.97483 -23.11639,0.0302 -42.57889,0.39425 -43.25,0.80902 L 833,772.11804 v 51.94099 51.94098 h 1.05902 c 0.58246,0 0.75315,-0.4949 0.37932,-1.09977 l -0.67969,-1.09977 1.87067,0.94116 c 1.09767,0.55224 19.44076,0.87193 44.39002,0.77364 23.38563,-0.0921 44.24809,0.0343 46.36102,0.28098 l 3.84169,0.44849 -1.36103,0.86232 -1.36102,0.86232 1.66667,0.0153 c 0.91666,0.008 1.89364,-0.54719 2.17105,-1.23469 l 0.50439,-1.25 0.0789,1.25 c 0.0434,0.6875 0.55551,1.25 1.13797,1.25 0.58246,0 0.7809,-0.45 0.44098,-1 -0.34463,-0.55763 0.40341,-0.99323 1.69098,-0.98469 l 2.30902,0.0153 -1.36315,0.86363 -1.36316,0.86364 1.36316,0.5421 c 0.74973,0.29816 -23.06347,0.57763 -52.91823,0.62105 L 828.93723,879 Z M 126.2,740.8 l -1.2,-1.2 0.0153,-55.05 0.0153,-55.05 0.94772,-1.5 0.94773,-1.5 h 54.78696 54.78696 l 0.25054,56.16681 c 0.13779,30.89175 -0.0229,56.87925 -0.35699,57.75 L 235.78602,742 H 181.59301 127.4 Z m 32.16163,-1.3 c -0.31659,-0.825 -0.0775,-1.5 0.53138,-1.5 0.60885,0 1.13862,0.7875 1.17728,1.75 l 0.0703,1.75 0.67972,-1.5 c 0.37384,-0.825 1.46721,-1.63223 2.42971,-1.79384 l 1.75,-0.29383 0.116,1.79383 0.116,1.79384 0.45733,-1.75 c 0.25152,-0.9625 0.92247,-1.75 1.49098,-1.75 0.56852,0 0.77465,0.675 0.45806,1.5 l -0.5756,1.5 h 6.96861 6.96862 l 0.116,-1.75 0.116,-1.75 0.45733,1.75 0.45732,1.75 h 25.42667 25.42668 v -1.5 c 0,-0.825 0.43886,-1.5 0.97525,-1.5 h 0.97525 l -0.95923,-2.52297 c -0.56521,-1.48659 -0.97972,-23.87378 -1.0091,-54.5 L 232.93231,629 H 181.46616 130 v 55.19113 55.19113 l 1.57416,-1.94113 c 0.86578,-1.06762 1.32085,-1.42979 1.01124,-0.80482 -0.81008,1.63526 1.56958,1.96075 13.6646,1.86905 l 10.75,-0.0815 v 1.28807 c 0,0.70845 0.43588,1.28808 0.96862,1.28808 0.53273,0 0.70959,-0.675 0.39301,-1.5 z m 245.24536,0.91821 C 403.27314,739.54823 403,714.54667 403,684.8592 v -53.97723 l 1.25,0.75097 1.25,0.75098 -1.3925,-1.71613 c -2.32428,-2.86445 -0.73568,-3.11091 19.6964,-3.05584 l 19.6961,0.0531 -15,-0.6268 c -8.25,-0.34473 8.4,-0.60687 37,-0.58252 l 52,0.0443 -0.1371,1.73924 c -0.0754,0.95658 0.2621,1.49252 0.75,1.19098 1.24589,-0.77 1.1116,2.94528 -0.15213,4.20901 l -1.03923,1.03923 0.28923,52.66116 c 0.15908,28.96363 -0.0748,52.66098 -0.51979,52.66077 C 516.24602,740.00017 516.16008,740.45 516.5,741 l 0.61803,1 h -56.45202 -56.45203 z m 27.93572,-0.34911 c -0.31644,-0.512 -0.11799,-1.21356 0.44098,-1.55902 0.55897,-0.34546 1.01631,0.0734 1.01631,0.9309 0,0.85746 0.49814,1.55902 1.10699,1.55902 0.60884,0 0.84797,-0.675 0.53138,-1.5 -0.31658,-0.825 -0.13972,-1.5 0.39301,-1.5 0.53274,0 1.00025,0.7875 1.03891,1.75 l 0.0703,1.75 0.85943,-2 0.85943,-2 0.0703,1.75 c 0.0387,0.9625 0.54685,1.75 1.12931,1.75 0.58246,0 0.80012,-0.41891 0.48369,-0.9309 -0.31644,-0.512 -0.11799,-1.21356 0.44098,-1.55902 0.55897,-0.34546 1.01631,0.0734 1.01631,0.9309 0,0.85746 0.43588,1.55902 0.96862,1.55902 0.53273,0 0.721,-0.7875 0.41836,-1.75 l -0.55025,-1.75 1.58163,1.94113 1.58164,1.94113 0.116,-1.94113 0.116,-1.94113 0.45733,1.75 0.45732,1.75 h 14.37698 14.37699 l 1.1252,-1.75 1.12519,-1.75 -0.54412,1.75 -0.54412,1.75 13.71861,-0.18025 c 7.54524,-0.0991 11.58112,-0.34879 8.96862,-0.55479 -6.92831,-0.5463 -5.81207,-1.83829 1.5,-1.73616 3.4375,0.048 7.70933,-0.22822 9.49295,-0.61385 1.84001,-0.39782 3.00416,-0.31478 2.69098,0.19195 -0.30358,0.49121 -0.0829,0.8931 0.49033,0.8931 h 1.0423 l 0.26672,-55.00876 0.26672,-55.00877 -53.5,0.25877 -53.5,0.25876 -0.24007,54.54874 -0.24008,54.54873 8.49013,-0.0487 c 5.01628,-0.0288 8.49636,0.36042 8.50538,0.95126 l 0.0153,1 0.73468,-1 c 0.40408,-0.55 1.3524,-1.1309 2.10737,-1.29089 l 1.37268,-0.2909 -0.59129,1.5409 -0.5913,1.54089 h 2.52763 c 1.3902,0 2.26874,-0.41891 1.95231,-0.9309 z m 111.12396,1.26423 C 542.3,740.96667 542,715.13981 542,683.94032 v -56.72634 l 1.58179,-0.60699 C 544.45177,626.27314 571.36177,626 603.38179,626 H 661.6 l 1.2,1.2 1.2,1.2 v 55.35902 c 0,32.85556 -0.36859,55.13121 -0.90674,54.79862 -0.49871,-0.30822 -0.67122,0.34022 -0.38337,1.44098 L 663.23326,742 H 603.2833 c -32.97248,0 -60.24997,-0.3 -60.61663,-0.66667 z m 43.00851,-2.57571 2.17518,-0.53125 -0.53217,1.38681 C 587.0255,740.37593 587.28417,741 587.89301,741 588.50186,741 589,740.42143 589,739.71429 c 0,-0.70715 0.9,-1.28572 2,-1.28572 2.46498,0 2.63229,1.25955 0.25,1.8821 -0.9625,0.25153 -0.175,0.474 1.75,0.49438 1.925,0.0204 2.88658,-0.20689 2.13685,-0.50505 l -1.36316,-0.5421 1.01698,-0.62895 c 0.55934,-0.34592 3.42276,-0.42007 6.36315,-0.16478 l 5.34618,0.46418 -5,0.62872 -5,0.62872 15.70031,0.15711 15.70031,0.1571 1.01928,-1.75 1.01928,-1.75 0.0304,1.80902 c 0.0167,0.99496 0.48775,1.52636 1.04672,1.1809 0.55897,-0.34546 0.78183,-1.00752 0.49524,-1.47123 -0.28659,-0.46372 0.19205,-0.73846 1.06365,-0.61053 0.87161,0.12792 1.99186,0.87592 2.48946,1.66221 l 0.90471,1.42963 0.0856,-2 0.0856,-2 0.76494,1.95565 0.76494,1.95565 1.13436,-1.95565 1.13437,-1.95565 0.0304,1.75 c 0.0342,1.96637 2.02181,2.45218 2.04572,0.5 l 0.0153,-1.25 0.73468,1.09875 c 1.08564,1.62359 4.0512,1.30509 4.79899,-0.51542 l 0.65037,-1.58333 0.82238,2 0.82238,2 0.0703,-1.81629 0.0703,-1.81628 4.5,0.40243 4.5,0.40243 0.1696,-2.58615 C 659.79521,726.54637 659.37865,629 658.71229,629 c -0.45668,0 -0.55221,-0.45 -0.21229,-1 l 0.61803,-1 -54.30901,0.23684 L 550.5,627.47367 604,628 l 53.5,0.52633 -55.21779,0.23683 -55.21779,0.23684 -0.0475,54.91036 -0.0474,54.91037 2.17161,-0.56789 c 1.19438,-0.31234 1.91787,-0.1595 1.60774,0.33964 -0.33157,0.53365 3.93046,0.70154 10.34567,0.40752 l 10.90954,-0.5 0.0133,1 c 0.007,0.55 0.39419,0.39907 0.85976,-0.33541 0.46557,-0.73448 1.19586,-1.33541 1.62288,-1.33541 0.42702,0 1.15731,0.60093 1.62288,1.33541 0.46557,0.73448 0.85339,0.86934 0.86181,0.2997 0.008,-0.56965 0.91531,-1.03572 2.01531,-1.03572 1.1,0 2,0.63367 2,1.40816 v 1.40816 l 1.25,-0.97801 c 0.6875,-0.53791 2.22883,-1.21708 3.42518,-1.50926 z m 103.36,1.30812 L 688,738.13148 V 683.10093 628.07037 L 690,627 l 2,-1.07037 0.0153,1.28519 0.0153,1.28518 0.73468,-1.15566 c 0.40408,-0.63561 0.60792,24.2016 0.45298,55.19381 l -0.28171,56.34948 16.0321,-0.19382 16.03209,-0.19381 -3.8e-4,1.44113 -3.9e-4,1.44113 1.4682,-1.94113 1.46819,-1.94113 0.0471,1.5 c 0.0278,0.88456 0.34855,1.08971 0.7818,0.5 1.03544,-1.40935 3.23469,-1.70918 3.23469,-0.44098 0,0.5987 0.54333,0.71822 1.25,0.27498 1.63027,-1.02255 8.75,-1.10989 8.75,-0.10733 0,0.42533 -0.5625,0.87631 -1.25,1.00217 -0.6875,0.12587 13.15,0.47289 30.75,0.77116 l 32,0.54231 -56.71482,0.22885 -56.71481,0.22884 -1.03519,-1.93426 z m 140.03106,0.058 -1.00413,-1.87623 0.21895,-55.35676 0.21894,-55.35676 4,-0.70938 c 2.2,-0.39016 25.51708,-0.73531 51.81574,-0.76701 L 932.13148,626 l 1.93426,-1.03518 C 935.17865,624.36921 936,624.32378 936,624.85783 c 0,1.51932 -2.74942,2.13275 -10.33179,2.30517 L 918.5,627.32599 924,628 c 3.025,0.3707 -16.21939,0.74736 -42.76531,0.837 l -48.26532,0.163 0.0473,54.75 0.0473,54.75 9.96805,-0.043 c 9.202,-0.0397 11.86206,0.54722 8.71805,1.92355 -0.6875,0.30096 0.325,0.45096 2.25,0.33333 1.925,-0.11763 3.41765,-0.68592 3.317,-1.26287 l -0.183,-1.04899 6.43294,0.049 c 3.53811,0.0269 6.43296,0.41913 6.43299,0.8715 4e-5,0.45238 -2.46822,0.70817 -5.48502,0.56842 -3.01679,-0.13974 -5.79179,0.0526 -6.16666,0.4275 -0.37487,0.37487 4.68092,0.60593 11.23508,0.51348 6.55417,-0.0925 10.22917,-0.34462 8.16667,-0.56037 -7.30061,-0.76367 -3.61304,-1.82487 6.24918,-1.79838 9.54189,0.0256 13.12593,0.92059 7.25082,1.8106 l -2.75,0.41659 3.75,0.14983 L 896,741 l -0.25,-1.1528 -0.25,-1.15281 6.75,-0.1735 6.75,-0.17351 0.0703,1.57631 0.0703,1.57631 0.67972,-1.5 C 910.6591,738.14889 913,737.55993 913,739.2 v 1.2 l 1.2,-1.2 c 1.70687,-1.70687 3.28734,-1.49214 1.84135,0.25018 l -1.20354,1.45018 6.33109,0.35714 c 3.48211,0.19643 -15.59057,0.44385 -42.38372,0.54982 L 830.07037,742 829.06624,740.12377 Z M 800.8,738.8 c 0.66,-0.66 1.15514,-2.1225 1.10032,-3.25 L 801.80064,733.5 801,736 c -0.63589,1.98558 -1.6831,-101.06437 -1.07465,-105.75 l 0.16232,-1.25 -52.79383,-0.2335 -52.79384,-0.23351 42,-0.5274 42,-0.52741 -42,-0.50036 -42,-0.50037 54.19098,-0.23872 54.19099,-0.23873 0.59898,0.96918 c 0.79959,1.29375 0.42758,96.03932 -0.44085,112.28082 -0.0221,0.4125 -0.8051,0.75 -1.7401,0.75 h -1.7 z M 125.69939,602.36606 C 125.31473,601.98139 125,577.38136 125,547.69931 v -53.96736 l 12.25,0.61325 c 9.94559,0.49789 58.20668,0.85471 89.75,0.66356 l 6.5,-0.0394 L 232,494 l -1.5,-0.96937 h 2 c 1.1,0 2.57328,0.36383 3.27396,0.80851 l 1.27396,0.80851 -0.27396,53.92618 L 236.5,602.5 l -55.05061,0.28273 c -30.27783,0.1555 -55.36533,-0.032 -55.75,-0.41667 z m 106.95374,-4.60075 C 232.01891,597.36123 231.95,597.02405 232.5,597.01602 l 1,-0.0146 -0.56406,-49.75071 c -0.31024,-27.36288 -0.64774,-49.8737 -0.75,-50.02404 C 232.08367,497.07632 209.05,496.9866 181,497.02727 l -51,0.074 v 50.43919 50.4392 l 45.25,0.26019 c 60.44942,0.34759 58.71592,0.36192 57.40313,-0.4745 z m 29.58634,4.07416 L 261,600.6 v -53.1417 -53.14169 l 4,0.0693 c 2.2,0.0381 4,0.44346 4,0.90071 0,0.45726 0.45,0.55326 1,0.21334 0.55,-0.33992 1,-0.14148 1,0.44098 0,0.58246 -1.125,1.05902 -2.5,1.05902 H 266 l -2.8e-4,50.75 -2.8e-4,50.75 53.693,-0.24718 53.69301,-0.24719 0.79196,1.24719 0.79196,1.24718 0.0153,-1.38976 c 0.008,-0.76436 0.80281,-2.03523 1.76531,-2.82415 0.9625,-0.78892 1.1875,-1.14948 0.5,-0.80123 l -1.25,0.63317 -0.10598,-46.80901 C 375.83573,523.56406 375.68203,500.925 375.55247,499 c -0.27927,-4.14913 0.36341,-5.74084 1.55722,-3.85676 l 0.85968,1.35676 0.0856,-1.5 0.0856,-1.5 0.67972,1.70722 c 0.37384,0.93898 0.45471,19.83898 0.17971,42 -0.275,22.16103 -0.275,44.9063 0,50.54506 0.275,5.63875 0.1625,10.25125 -0.25,10.25 -0.4125,-0.001 -0.69671,0.33522 -0.63158,0.74772 0.0651,0.4125 0.0651,1.425 0,2.25 L 378,602.5 l -57.26054,0.28947 -57.26053,0.28946 z m 141.08908,-0.42566 c -0.46145,-1.20253 0.27118,-99.41667 0.76769,-102.91381 0.0781,-0.55 -0.14678,-1.68851 -0.49971,-2.53002 l -0.64168,-1.53003 2.27257,-0.18842 2.27258,-0.18843 -0.25324,53.21845 c -0.13928,29.27015 0.11877,52.64543 0.57346,51.94507 l 0.82671,-1.27337 51.54896,0.27337 51.54897,0.27338 1.12757,-1.20779 L 514,596.08441 V 545.98319 495.88197 L 513,496.5 c -0.55,0.33992 -1,0.19026 -1,-0.33257 0,-1.16853 4.73174,-2.45126 6.04599,-1.63901 0.5247,0.32429 0.90915,2.47556 0.85433,4.7806 L 518.80064,503.5 518,501 c -0.44035,-1.375 -0.8455,18.76861 -0.90032,44.76357 L 517,593.02714 l 1.25,2.01694 1.25,2.01695 -1,0.71948 c -0.55,0.39572 -1,1.61949 -1,2.71949 v 2 l -56.80015,0.20109 -56.80016,0.20109 z m 139.33812,0.91952 C 542.3,601.96667 542,577.44167 542,547.83333 V 494 l 4.25,0.0136 c 2.3375,0.008 5.30054,0.29495 6.58453,0.63874 l 2.33454,0.62509 -1.33454,0.84594 c -0.73399,0.46528 -2.57203,0.85285 -4.08453,0.86127 L 547,497 v 50.5 50.5 h 53.41821 c 29.38002,0 54.24252,0.26745 55.25,0.59433 l 1.83179,0.59433 -1.5,-1.07901 -1.5,-1.07902 1.75,-0.0153 c 0.9625,-0.008 1.82614,0.54719 1.91919,1.23469 0.70152,5.18279 1.33081,-22.95259 1.33081,-59.49966 V 495.0007 l 1.12957,-3.4e-4 1.12957,-3.4e-4 0.10092,44.25 c 0.0555,24.3375 0.21524,44.475 0.35496,44.75 0.13971,0.275 0.49296,-19.75 0.78498,-44.5 l 0.53095,-45 0.23453,53.12756 0.23452,53.12755 -1.25,0.99784 -1.25,0.99783 -54.25049,0.15953 -54.2505,0.15953 -1.9995,-1.0701 L 549,600.92963 548.98469,602.21482 548.96937,603.5 548,602 l -0.96937,-1.5 -0.0153,1.25 c -0.016,1.30814 -3.19712,1.73486 -4.34864,0.58333 z M 689.2,601.8 688,600.6 V 547.18025 493.7605 l 8.75,0.55871 c 4.8125,0.30728 8.88906,0.58617 9.05902,0.61975 2.73623,0.54052 -2.51542,2.06098 -7.11804,2.06081 l -6.19098,-2.3e-4 0.26808,50.50023 0.26808,50.50023 47.73192,0.10596 c 26.25256,0.0583 49.08192,10e-4 50.73192,-0.12719 1.65,-0.12824 4.125,-0.28842 5.5,-0.35596 l 2.5,-0.12281 0.2592,-50.8147 0.2592,-50.81471 -1.13893,0.7039 -1.13893,0.7039 0.45685,-1.38919 c 0.25126,-0.76406 1.65964,-1.53159 3.12973,-1.70562 L 804,493.86716 l -0.0153,53.31642 c -0.008,29.32403 -0.37616,53.88486 -0.81718,54.57963 l -0.80187,1.26321 -53.93282,-0.26321 L 694.5,602.5 l -0.73469,-1 -0.73468,-1 -0.0153,1.25 c -0.0195,1.5888 -2.24731,1.618 -3.81531,0.05 z m 139.82295,-0.27235 -1.22008,-1.4701 0.41119,-52.69394 0.41119,-52.69393 49.43738,0.25923 c 27.19055,0.14258 50.44987,0.22194 51.68737,0.17636 1.2375,-0.0456 2.25,0.34545 2.25,0.86896 v 0.95182 l -47.25,0.16854 c -25.9875,0.0927 -48.2625,0.15694 -49.5,0.14276 l -2.25,-0.0258 v 50.39422 50.39421 l 43.25,0.0713 c 44.6028,0.0735 51.00446,0.32404 51.59725,2.0192 l 0.34724,0.993 1.47897,-1.22744 1.47897,-1.22744 0.90847,1.4357 c 0.49966,0.78964 0.91537,1.74956 0.92379,2.13316 0.008,0.3836 -23.10501,0.7206 -51.36318,0.74887 l -51.37849,0.0514 -1.22007,-1.4701 z M 125.62714,468.20571 c -0.31733,-0.51345 -0.47575,-25.63228 -0.35205,-55.81962 L 125.5,357.5 l 2.85641,-0.32669 2.85642,-0.32669 -0.66543,1.07669 -0.66543,1.07669 51.80901,-0.20554 c 29.35918,-0.11647 45.95921,-0.46683 38.30902,-0.80854 l -13.5,-0.60301 15,0.0586 15,0.0585 0.22326,53.5 c 0.12279,29.425 -0.0422,54.5125 -0.36664,55.75 l -0.58988,2.25 h -5.44239 -5.44238 l 0.75097,-1.25 0.75098,-1.25 -1.69196,1.37244 L 223,469.2449 v -1.12245 c 0,-0.61734 -0.7875,-1.19003 -1.75,-1.27263 -0.9625,-0.0826 0.275,-0.42011 2.75,-0.75 l 4.5,-0.59981 0.67971,1.5 0.67972,1.5 0.0703,-1.80902 c 0.0387,-0.99496 0.52763,-1.52636 1.0866,-1.1809 0.55897,0.34546 0.71444,1.11655 0.34549,1.71353 l -0.67082,1.08541 1.17082,-0.72361 c 0.64395,-0.39798 0.91193,-1.14251 0.59549,-1.65451 -0.31643,-0.51199 -0.0988,-0.9309 0.48369,-0.9309 0.58246,0 1.05902,-0.70156 1.05902,-1.55902 0,-0.85746 -0.3375,-1.35026 -0.75,-1.09512 -0.4125,0.25514 -0.61612,-20.75581 -0.45248,-46.69099 0.16363,-25.93518 0.039,-48.95487 -0.27699,-51.15487 l -0.5745,-4 -23.72302,0.078 c -13.04765,0.0429 -35.98551,0.15543 -50.97301,0.25 L 130,361 v 52.32129 52.32129 l 5.25,0.2861 c 2.8875,0.15736 6.94327,0.30701 9.01282,0.33256 4.97821,0.0615 3.72151,1.18634 -1.596,1.42859 -2.29175,0.10441 -6.9334,0.47324 -10.31477,0.81963 -3.47678,0.35616 -6.39863,0.22419 -6.72491,-0.30375 z M 403.44685,467.914 c -0.92548,-1.49746 -0.1291,-109.83479 0.80315,-109.25911 0.4125,0.25473 0.75,-0.0134 0.75,-0.59587 V 357 l 12.25,0.19367 12.25,0.19366 -10,0.61267 c -7.44731,0.45627 61.93979,1.40459 88.5,1.20954 10.67079,-0.0784 5.15526,-0.71372 -10.5,-1.20954 l -18,-0.57008 18.55,-0.21496 L 516.6,357 l 1.2,1.2 1.2,1.2 -0.1726,7.05 -0.1726,7.05 -0.67036,-6.5 c -0.36869,-3.575 -0.62853,17.91265 -0.5774,47.75033 l 0.093,54.25032 -1.50945,-3.2e-4 c -0.8302,-1.8e-4 -2.06112,-0.88368 -2.73537,-1.96333 l -1.22591,-1.963 1.23536,0.47439 1.23537,0.4744 -0.27594,-52.58644 -0.27593,-52.58644 1.27593,0.73537 c 0.70177,0.40445 0.93098,0.35577 0.50937,-0.10819 -0.65504,-0.72083 -107.72159,-0.82226 -108.44112,-0.10273 -0.14173,0.14172 -0.28376,23.62797 -0.31564,52.19166 l -0.058,51.93398 3.98818,0.30493 3.98817,0.30494 -0.55452,1.44506 L 413.78601,469 h -4.83399 c -2.6587,0 -5.13603,-0.4887 -5.50518,-1.086 z M 542.4588,467.75 c -0.26314,-0.6875 -0.36151,-25.775 -0.21861,-55.75 l 0.25981,-54.5 18.5,-0.0495 18.5,-0.0495 -16.5,0.58716 -16.5,0.58716 13.5,0.35676 c 7.425,0.19621 29.7,0.31306 49.5,0.25965 l 36,-0.0971 -3.44376,0.86598 c -1.89406,0.47629 -20.56906,0.89439 -41.5,0.92913 -20.93093,0.0347 -41.55424,0.0737 -45.82958,0.0867 l -7.77335,0.0235 0.0718,52.75 0.0718,52.75 5.13167,-0.35866 5.13167,-0.35866 -1.60865,1.60866 -1.60866,1.60866 h -5.60282 -5.60281 l -0.47843,-1.25 z m 116.42684,-0.94922 c 0.48907,-1.28634 0.78532,-9.98024 0.65835,-19.31979 -0.12698,-9.33954 -0.30132,-33.27103 -0.38743,-53.18109 L 659,358.09981 l -5.75,-0.36082 -5.75,-0.36082 6.25,-0.18909 L 660,357 l 2,2 2,2 v 52.5 52.5 h -1 c -0.55,0 -0.8875,0.55182 -0.75,1.22626 0.1375,0.67444 -0.7633,1.38084 -2.00178,1.56978 l -2.25178,0.34353 z m 29.78103,1.53255 C 688.3,467.96667 688,442.9518 688,412.74473 v -54.92194 l 5.75,0.60544 c 3.1625,0.333 27.99807,0.59847 55.19016,0.58994 l 49.44016,-0.0155 0.68499,-1.10834 c 0.39277,-0.6355 1.60827,-0.81531 2.84916,-0.42147 l 2.16416,0.68688 -0.12337,51.92014 -0.12338,51.92013 -1.66594,0.0153 -1.66594,0.0153 1.27343,0.80818 c 0.70038,0.4445 1.46436,1.79963 1.69772,3.0114 0.23337,1.21176 0.0363,1.96339 -0.43801,1.67027 -0.47428,-0.29312 -1.06415,0.0324 -1.31083,0.72329 -0.24667,0.69093 -0.83057,0.89826 -1.29755,0.46075 -0.46698,-0.43751 -0.29977,-1.67501 0.37157,-2.75 L 802.01695,464 H 801.00847 800 V 412.5 361 l -46.75,-0.11502 c -44.81788,-0.11027 -59.4493,0.0245 -60.00712,0.55252 -0.14141,0.13387 -0.30276,23.1527 -0.35855,51.15295 L 692.7829,463.5 l -1.14145,0.73469 -1.14145,0.73468 1.25,0.0153 C 692.4375,464.99311 693,465.9 693,467 v 2 h -1.83333 c -1.00834,0 -2.13334,-0.3 -2.5,-0.66667 z m 141.25682,0.47671 c -0.0421,-0.17052 -0.3612,-1.21004 -0.70916,-2.31004 -0.34795,-1.1 -0.77146,-25.59456 -0.94112,-54.43237 l -0.30848,-52.43236 0.99259,-0.99259 c 0.54592,-0.54592 4.49136,-1.08113 8.76763,-1.18935 l 7.77505,-0.19676 -5,0.71461 c -7.30457,1.04399 -6.15651,1.07162 42.75,1.02915 l 44.75,-0.0389 v 1.01926 1.01927 H 880.5 833 v 52.54384 52.54383 l 1.25,-0.16232 c 2.51307,-0.32633 16.07097,0.0866 15.66667,0.47716 -0.22917,0.22138 -3.34167,0.66697 -6.91667,0.9902 -3.575,0.32324 -7.9625,0.84413 -9.75,1.15754 -1.7875,0.31341 -3.28443,0.43032 -3.32651,0.25979 z"
         id="path10425" />
      <path
         style="fill:#cc8d3b"
         d="m 104.991,941.75 c -0.61227,-1.90539 -0.48159,-3.30337 0.36407,-3.89463 0.50708,-0.35454 -0.60286,-0.49577 -2.46655,-0.31384 -1.86368,0.18194 -3.72602,0.35952 -4.13852,0.39463 -0.4125,0.0351 -0.756891,0.85134 -0.765313,1.81384 L 97.969374,941.5 97,940 c -0.533156,-0.825 -0.976265,-1.14497 -0.984687,-0.71104 -0.0084,0.43392 -0.983463,-0.11302 -2.166757,-1.21542 -1.183294,-1.10241 -2.486141,-1.79752 -2.895215,-1.5447 -0.409074,0.25282 -1.001801,-0.21274 -1.317171,-1.03458 C 89.3208,934.67242 88.347089,934 87.472368,934 c -0.874721,0 -1.324433,-0.43035 -0.99936,-0.95633 0.325073,-0.52598 1.139131,-0.82473 1.809017,-0.66389 0.669886,0.16084 0.861693,0.0974 0.426237,-0.14092 -0.435456,-0.23834 -0.210456,-1.16932 0.5,-2.06884 l 1.291738,-1.6355 -2.546061,1.62217 -2.546062,1.62216 -4.645729,-4.38942 C 78.206997,924.97524 76.370325,923 76.680654,923 c 0.31033,0 0.01445,-0.66245 -0.657517,-1.47212 l -1.221752,-1.47212 1.599308,-1.59931 C 77.280312,917.57683 78,917.24929 78,917.72857 c 0,0.47929 -0.416412,1.29893 -0.925361,1.82143 l -0.925361,0.95 2.420394,3 2.420394,3 0.005,-1.75 C 80.997765,923.7875 81.45,923 82,923 c 1.368586,0 1.255377,1.32782 -0.25,2.93224 l -1.25,1.33223 3.179687,-0.59317 c 1.748829,-0.32625 3.402579,-0.1495 3.675,0.39276 0.272422,0.54227 0.366958,0.41219 0.210081,-0.28906 -0.156878,-0.70125 -1.195696,-1.1771 -2.308484,-1.05743 l -2.02325,0.21756 0.133483,-1.71756 c 0.07792,-1.00259 -0.57902,-1.7224 -1.578123,-1.72918 -0.941383,-0.006 -2.291383,-0.62513 -3,-1.375 L 77.5,919.75 l 1.257076,-0.46069 1.257076,-0.46069 -1.798704,-2.66431 C 77.226161,914.69894 75.371684,911.025 74.094388,908 c -1.277296,-3.025 -2.727127,-6.2911 -3.221848,-7.25801 -0.49472,-0.9669 -1.561776,-4.5669 -2.371235,-8 L 67.029562,886.5 67.014781,609.81336 67,333.12672 63.75,332.7234 c -1.7875,-0.22183 5.525,-0.40465 16.25,-0.40626 11.224367,-0.002 17.378043,0.28811 14.5,0.68286 -2.75,0.37719 -3.875,0.75648 -2.5,0.84287 l 2.5,0.15709 -0.258634,281.83335 -0.258634,281.83336 h 1.494144 c 1.876251,0 2.642866,-2.33067 1.972481,-5.99675 l -0.517513,-2.83008 1.159866,0.71684 1.159866,0.71684 -0.553535,5.36324 L 98.144506,901 h 1.082734 c 0.595504,0 0.225491,1.00475 -0.822252,2.23277 L 96.5,905.46553 l 1.653117,-1.2748 1.653117,-1.27481 2.742906,2.54204 c 1.5086,1.39812 3.4647,2.54365 4.34688,2.54563 23.01896,0.0514 830.99241,-0.1931 831.85398,-0.25178 0.6875,-0.0468 1.25,-0.53514 1.25,-1.08514 0,-0.55 0.30098,-0.69902 0.66885,-0.33115 1.03553,1.03552 4.34068,-2.42256 5.9137,-6.18734 C 949.2193,893.83755 947.19989,882 943.48658,882 942.66896,882 942,881.52344 942,880.94098 c 0,-0.58246 -0.45,-0.7809 -1,-0.44098 -0.55,0.33992 -1,0.11115 -1,-0.50837 v -1.12641 l -2.12523,0.67453 -2.12523,0.67452 0.68425,-1.10714 c 0.37633,-0.60892 0.0952,-1.11402 -0.62477,-1.12244 L 934.5,877.96937 936,877 l 1.5,-0.96937 -2.30902,-0.0153 c -1.28757,-0.009 -2.03561,0.42706 -1.69098,0.98469 0.33992,0.55 0.17898,1 -0.35765,1 -0.53663,0 -1.20266,-0.5625 -1.48007,-1.25 l -0.50439,-1.25 -0.0789,1.25 c -0.0434,0.6875 -0.86645,1.24311 -1.82895,1.23469 l -1.75,-0.0153 1.36102,-0.86232 1.36103,-0.86232 -3.84169,-0.44849 c -2.11293,-0.24667 -22.97539,-0.37312 -46.36102,-0.28098 -24.94926,0.0983 -43.29235,-0.2214 -44.39002,-0.77364 l -1.87067,-0.94116 0.67969,1.09977 C 834.81217,875.5051 834.64148,876 834.05902,876 H 833 v -51.94098 -51.94099 l 1.2202,-0.75412 c 0.67111,-0.41477 20.13361,-0.77883 43.25,-0.80902 23.3991,-0.0306 42.87825,-0.46267 43.94384,-0.97483 l 1.91405,-0.91994 -0.63378,1.02548 -0.63379,1.02549 2.48452,-0.47495 c 4.19696,-0.8023 3.60695,-1.90893 -0.84278,-1.58071 -2.31124,0.17049 -4.87726,0.28556 -5.70226,0.25572 -0.825,-0.0298 -18.49578,-0.27664 -39.2684,-0.54843 -20.77261,-0.27179 -37.53547,-0.87104 -37.2508,-1.33166 0.28468,-0.46061 20.09278,-0.76854 44.01802,-0.68427 23.92523,0.0843 43.50059,-0.21085 43.5008,-0.65581 2.1e-4,-0.44496 0.45356,-0.52893 1.00744,-0.18661 0.55389,0.34231 1.28449,-0.10056 1.62356,-0.98416 l 0.61649,-1.60655 2.04834,1.79317 c 1.12659,0.98624 1.7566,1.29081 1.40003,0.67682 -0.35658,-0.614 0.23046,-1.91164 1.30452,-2.88365 1.07406,-0.97201 1.63999,-2.26965 1.25762,-2.88365 -0.38237,-0.61399 -0.76322,-2.69135 -0.84633,-4.61635 -0.21006,-4.86522 -0.84162,-7.02989 -2.31707,-7.94177 -0.69577,-0.43001 -1.22661,-1.06903 -1.17963,-1.42003 0.047,-0.35101 -0.18057,-0.60823 -0.50566,-0.57161 -0.32508,0.0366 -1.15256,-0.70131 -1.83884,-1.63984 l -1.24777,-1.70644 -7.67379,-0.49247 -7.67379,-0.49248 1.13507,-1.36768 C 917.50672,737.68451 915.86006,737.53994 914.2,739.2 l -1.2,1.2 v -1.2 c 0,-1.64007 -2.3409,-1.05111 -3.17971,0.8 l -0.67972,1.5 -0.0703,-1.57631 -0.0703,-1.57631 -6.75,0.17351 -6.75,0.1735 0.25,1.15281 0.25,1.1528 -3.75,-0.14983 -3.75,-0.14983 2.75,-0.41659 c 5.87511,-0.89001 2.29107,-1.78498 -7.25082,-1.8106 -9.87687,-0.0265 -13.52445,1.02861 -6.24918,1.8077 2.0625,0.22087 -3.225,0.41949 -11.75,0.44138 -8.525,0.0219 -14.9375,-0.16916 -14.25,-0.42455 3.34806,-1.24373 0.33571,-1.87975 -8.71805,-1.84069 l -9.96805,0.043 -0.0473,-54.75 -0.0473,-54.75 48.26532,-0.163 C 907.78061,628.74736 927.025,628.3707 924,628 l -5.5,-0.67401 7.16821,-0.16299 C 933.85492,626.97684 936,626.38948 936,624.33399 c 0,-0.79861 0.45,-1.17391 1,-0.83399 0.55,0.33992 1,0.14148 1,-0.44098 0,-0.58246 0.47656,-1.05902 1.05902,-1.05902 0.58246,0 0.7809,0.45 0.44098,1 -1.00599,1.62773 0.14174,1.13977 1.62756,-0.69196 0.78185,-0.96388 0.86428,-1.38718 0.19154,-0.98369 -0.6495,0.38955 -1.43441,0.29809 -1.74426,-0.20325 -0.30984,-0.50134 0.081,-1.15881 0.86862,-1.46103 l 1.43198,-0.5495 -0.43511,-5.72366 c -0.42196,-5.55072 -2.71055,-9.95597 -4.57398,-8.80431 C 936.38986,604.87709 936,604.61492 936,604 c 0,-0.61492 -0.44809,-0.8411 -0.99575,-0.50263 -0.54766,0.33847 -1.51989,-0.53497 -2.16051,-1.94098 -1.25447,-2.75327 -2.32321,-3.20764 -3.40972,-1.44963 l -0.68402,1.10677 -0.6526,-1.05593 c -1.09677,-1.77461 -7.00648,-2.01241 -51.8474,-2.08632 L 833,598 v -50.39421 -50.39422 l 2.25,0.0258 c 1.2375,0.0142 23.5125,-0.0501 49.5,-0.14276 L 932,496.92607 v -0.95182 c 0,-0.52351 -1.0125,-0.93594 -2.25,-0.91652 -21.85105,0.34294 -88.92172,-0.36159 -93.75,-0.98476 l -6.5,-0.83894 53.45263,-0.0339 53.45262,-0.0339 1.19638,-1.63614 1.19637,-1.63614 0.52205,1.30301 0.52206,1.303 0.0789,-1.69098 c 0.0434,-0.93004 0.59848,-2.01207 1.23346,-2.40451 l 1.15451,-0.71353 L 941.5,489 l -0.80902,1.30902 1.24164,-0.76738 1.24164,-0.76738 -0.9922,-0.9922 -0.9922,-0.9922 1.22817,-3.14493 c 0.67549,-1.72971 1.13903,-3.70743 1.03007,-4.39493 -0.10895,-0.6875 -0.25435,-1.67223 -0.3231,-2.18828 -0.0688,-0.51606 -1.45477,-2.3942 -3.08005,-4.17365 l -2.95504,-3.23536 -11.71167,-0.0763 -11.71167,-0.0764 -0.40941,-1.5 -0.40942,-1.5 1.06082,1.5 1.06081,1.5 0.0153,-1.18664 c 0.008,-0.65265 1.47781,-1.36814 3.26531,-1.58996 1.7875,-0.22183 0.19476,-0.47534 -3.53943,-0.56336 L 907.92115,466 l 1.28942,1.39504 c 0.70919,0.76727 1.69646,1.14774 2.19394,0.84549 0.49748,-0.30225 0.62092,-0.0907 0.27432,0.47012 -0.3466,0.56081 -1.87863,0.8715 -3.40451,0.69042 -1.52588,-0.18109 -9.63682,-0.37653 -18.02432,-0.43432 L 875,468.86169 V 467.43084 466 h -5.96862 -5.96861 l 0.5756,1.5 c 0.31659,0.825 0.11046,1.5 -0.45806,1.5 -0.56851,0 -1.23946,-0.7875 -1.49098,-1.75 l -0.45733,-1.75 -0.116,1.75 -0.116,1.75 -10.25,0.0508 c -5.6375,0.028 -12.275,0.30203 -14.75,0.60907 -2.475,0.30704 -4.14948,0.19614 -3.72106,-0.24643 0.95618,-0.98777 2.44185,-1.26751 10.72106,-2.01869 3.575,-0.32437 6.6875,-0.77088 6.91667,-0.99226 0.4043,-0.39056 -13.1536,-0.80349 -15.66667,-0.47716 l -1.25,0.16232 v -52.54383 -52.54384 h 47.5 47.5 v -1.01848 -1.01848 l -45.25,0.0288 c -24.8875,0.0158 -46.48249,-0.31334 -47.98887,-0.73152 -2.43392,-0.67567 57.84781,-0.6867 88.39502,-0.0162 6.41088,0.14072 11.45498,-0.0685 11.2091,-0.46482 -0.24588,-0.39638 0.6664,-1.00014 2.02728,-1.3417 l 2.47432,-0.62102 -0.51098,-1.33161 c -0.28104,-0.73238 0.43652,-1.8387 1.59458,-2.45847 1.16993,-0.62613 1.79804,-1.62445 1.41351,-2.24663 l -0.69205,-1.11977 1.91405,0.72919 1.91404,0.72918 -1.17833,-1.18757 -1.17833,-1.18758 1.08615,-1.7392 c 0.63799,-1.02159 0.74721,-2.51594 0.2647,-3.62167 -0.4518,-1.03536 -0.87202,-2.10747 -0.93381,-2.38247 -0.42948,-1.91118 -4.06992,-6 -5.34206,-6 -0.85341,0 -1.32351,-0.22814 -1.04468,-0.50698 0.27884,-0.27883 6.65384,-0.79687 14.16667,-1.15119 L 964,331.69761 l 0.0987,8.4012 c 0.11253,9.5823 0.0137,374.02822 -0.13058,481.67082 -0.0526,39.19829 -0.46647,71.04039 -0.91981,70.76021 -0.45334,-0.28018 -1.12944,1.52572 -1.50245,4.0131 -0.37301,2.48739 -2.64264,8.34067 -5.04363,13.00729 l -4.36543,8.48477 1.26869,2.44542 1.2687,2.44542 1.16292,-1.16292 C 956.47669,921.12331 957,920.0701 957,919.42244 c 0,-0.64765 0.67005,-1.73364 1.48899,-2.4133 0.81894,-0.67967 1.20025,-1.70294 0.84736,-2.27394 l -0.64164,-1.03818 -1.34735,1.84262 C 956.60631,916.55308 956,916.90135 956,916.31357 c 0,-1.58186 2.54831,-3.41119 3.55904,-2.55489 0.48126,0.40772 0.27226,-0.0462 -0.46445,-1.00868 L 957.75511,911 h 1.68146 c 0.92481,0 1.39881,-0.45734 1.05335,-1.01631 -0.34546,-0.55897 -1.11655,-0.71444 -1.71353,-0.34549 -0.6326,0.39096 -0.799,0.2074 -0.39887,-0.44002 0.37759,-0.61096 1.34536,-0.85801 2.1506,-0.54901 l 1.46408,0.56181 -0.48257,-3.35549 -0.48257,-3.35549 0.88679,2.5 c 0.95315,2.68708 1.19521,2.61164 1.6044,-0.5 0.14466,-1.1 0.57396,-2.9 0.95402,-4 l 0.691,-2 -1.58163,1.94113 c -0.8699,1.06762 -1.58164,1.46022 -1.58164,0.87244 0,-0.58777 0.7093,-1.65734 1.57622,-2.37682 l 1.57621,-1.30815 0.85401,1.38182 c 0.48683,0.78771 0.43418,2.16627 -0.12246,3.20636 -0.53706,1.00351 -0.72785,2.22682 -0.42399,2.71848 0.30386,0.49165 0.0797,1.05152 -0.49819,1.24414 -0.57787,0.19262 -1.12643,1.35606 -1.21904,2.58541 -0.0926,1.22935 -0.52261,2.23519 -0.95556,2.23519 -0.43296,0 -0.70867,0.3375 -0.61269,0.75 0.26725,1.14856 -2.43663,6.46056 -4.67451,9.18348 -4.38974,5.34116 -12.533,14.04415 -12.92421,13.81254 -0.22855,-0.13531 -1.53808,0.73001 -2.91006,1.92293 -1.37197,1.19292 -2.75803,1.90542 -3.08012,1.58333 -0.32208,-0.32209 -0.58561,-0.0341 -0.58561,0.64007 0,0.67413 -0.45,0.94757 -1,0.60765 -0.55,-0.33992 -1,-0.11492 -1,0.5 0,0.61492 -0.41157,0.86367 -0.91459,0.55279 -0.50302,-0.31089 -1.09564,-0.0221 -1.31692,0.64173 l -0.40232,1.20697 -0.7421,-1.20074 C 932.21564,940.5399 932.38468,940 933,940 c 0.61492,0 0.8431,-0.44485 0.50708,-0.98855 l -0.61096,-0.98854 1.71599,0.65848 1.71598,0.65849 -0.71598,-1.15849 -0.71599,-1.15848 1.71599,0.65848 1.71598,0.65849 -0.71598,-1.15849 -0.71599,-1.15848 1.71599,0.65848 1.71598,0.65849 -0.68036,-1.10084 c -0.37419,-0.60547 -0.15348,-1.42647 0.49047,-1.82445 l 1.17082,-0.72361 -0.71353,1.15451 c -1.77827,2.87731 1.75448,0.65332 7.31451,-4.60472 5.35758,-5.06659 7.96799,-8.51947 5.10145,-6.74785 -0.56009,0.34616 -0.73839,-0.0409 -0.41138,-0.8931 0.31743,-0.82722 0.28044,-1.98414 -0.0822,-2.57091 -0.77047,-1.24666 -10.15277,7.94416 -9.66841,9.47109 0.17447,0.55 -0.007,0.6758 -0.40324,0.27955 -1.05785,-1.05786 -6.58719,3.18332 -5.80346,4.45143 0.39551,0.63994 0.19793,0.78859 -0.48619,0.36578 -0.63385,-0.39174 -2.39088,-0.0684 -3.90451,0.71846 -2.27575,1.1831 -6.45808,3.17288 -11.64125,5.53842 -0.48905,0.2232 -0.575,-0.10256 -0.19098,-0.72391 C 920.80384,939.50838 920.64148,939 920.05902,939 919.47656,939 919,939.43671 919,939.97047 v 0.97046 l -372.75,-0.47621 c -205.0125,-0.26191 -387.92067,-0.61469 -406.46259,-0.78395 l -33.7126,-0.30775 -0.4214,1.56349 c -0.23178,0.85992 -0.52986,1.22599 -0.66241,0.81349 z M 967.49301,612.5 c 10e-6,-154.55 0.11564,-217.62618 0.25697,-140.16929 0.14132,77.45689 0.14132,203.90689 -1e-5,281 C 967.60864,830.42382 967.49301,767.05 967.49301,612.5 Z M 373.91199,877 c -0.0819,-0.825 -0.0844,-1.87095 -0.006,-2.32433 0.0788,-0.45338 -0.35121,-0.51877 -0.95549,-0.14531 -0.60427,0.37347 -24.46546,0.74441 -53.02485,0.82433 l -51.92618,0.14531 -0.0152,-1 c -0.008,-0.55 -0.45145,-0.325 -0.98461,0.5 l -0.96937,1.5 0.0636,-54 c 0.035,-29.7 0.29061,-53.4375 0.56802,-52.75 l 0.50439,1.25 6.16666,-0.16811 6.16667,-0.16811 -6,-0.66378 -6,-0.66378 7.91667,-0.16811 c 9.83875,-0.20892 9.57537,-0.97303 -0.44152,-1.2809 -4.11133,-0.12636 -8.60015,-0.55782 -9.97515,-0.9588 -3.21317,-0.93703 61.16414,-1.13126 88.8785,-0.26815 l 21.20098,0.66026 -0.99548,0.99548 c -0.54751,0.54751 -3.57976,0.91102 -6.73833,0.80781 -3.15857,-0.10321 -5.48726,0.0679 -5.17486,0.38034 0.31241,0.3124 3.4543,0.59015 6.982,0.61723 l 6.414,0.0492 0.26946,50.1647 c 0.1482,27.59059 0.51888,51.00855 0.82373,52.03993 l 0.55427,1.87523 -1.26164,-0.77974 -1.26165,-0.77974 0.70863,1.14659 c 0.38975,0.63063 0.24796,1.93765 -0.31508,2.90451 L 374.06082,878.5 Z m 283.74434,-0.45322 -0.55766,-1.45322 -54.79933,0.19279 L 547.5,875.47914 547.241,823.73957 546.982,772 l 2.759,-0.0703 2.759,-0.0703 -2,-0.83226 c -1.10989,-0.46186 7.02403,-0.63403 18.27613,-0.38685 19.92023,0.43759 22.86054,0.19885 21.65115,-1.75798 l -0.60534,-0.97946 -1.41097,1.17101 -1.41097,1.171 V 769.12241 768 l -17.25,-0.11831 C 559.61795,767.81219 553.7379,767.44838 555.5,767 c 3.86989,-0.98472 90.10072,-1.01858 98,-0.0385 l 6,0.74445 -5,0.26544 c -2.75,0.14599 -5.37095,0.201 -5.82433,0.12224 -0.45338,-0.0788 -0.53932,0.31796 -0.19098,0.88158 0.34834,0.56363 2.79927,1.02478 5.44652,1.02478 h 4.81317 l 0.49528,3.75 c 0.35972,2.72365 0.10956,80.72336 -0.32874,102.5 -0.0429,2.13025 -0.50874,2.24046 -1.25459,0.29678 z m 75.35898,-0.30022 -0.0153,-1.25345 -11.75,0.18471 c -6.4625,0.10159 -15.03906,0.10314 -19.05902,0.003 L 694.88197,875 l 0.61095,-0.98855 c 0.35034,-0.56686 -0.0511,-0.7345 -0.94098,-0.39301 L 693,874.21398 v -51.89271 -51.8927 l 1.75,-0.0763 c 5.30793,-0.23151 14.75091,-0.13952 31.49909,0.30686 l 18.74908,0.49972 -0.62073,-1.6176 -0.62073,-1.6176 -18.12835,0.0789 c -26.87359,0.11695 -30.60235,-0.29788 -9.12836,-1.01555 18.19991,-0.60825 55.95502,-0.10864 55.11702,0.72935 -0.22093,0.22094 -2.58765,0.64059 -5.25936,0.93257 -2.67171,0.29197 -5.00805,0.6783 -5.19185,0.85851 -0.92655,0.90843 11.93746,1.59602 24.55221,1.31234 l 14.21802,-0.31973 0.0481,51.87163 c 0.0265,28.5294 0.22289,52.1544 0.43648,52.5 0.21359,0.34561 -14.53118,0.61331 -32.76616,0.5949 l -33.1545,-0.0335 -0.73469,1.03346 -0.73468,1.03347 -0.0153,-1.25344 z m -325.54941,-1.114 c -0.24401,-0.244 -0.43318,-23.99865 -0.42037,-52.7881 L 407.06881,770 h 1.02461 c 0.56354,0 0.7465,0.45 0.40658,1 l -0.61803,1 3.30901,-0.0997 3.30902,-0.0997 -2.31178,-0.65032 c -1.27149,-0.35768 10.42851,-0.59325 26,-0.52349 l 28.31178,0.12683 -7,-0.74402 -7,-0.74402 8,0.29668 c 4.4,0.16317 8.675,0.34591 9.5,0.40608 0.825,0.0602 6.225,0.13291 12,0.16164 5.775,0.0287 15.3375,0.0803 21.25,0.1145 l 10.75,0.0623 v 51.26481 c 0,28.19565 0.229,51.86412 0.50889,52.5966 l 0.50888,1.33179 -53.55411,0.0381 c -29.45476,0.021 -53.75375,-0.16154 -53.99776,-0.40555 z M 157,739.71192 v -1.28807 l -10.75,0.0815 c -12.09502,0.0917 -14.47468,-0.23379 -13.6646,-1.86905 0.30961,-0.62497 -0.14546,-0.2628 -1.01124,0.80482 L 130,739.38226 V 684.19113 629 h 51.46616 51.46615 l 0.0499,51.97703 c 0.0294,30.62622 0.44389,53.01341 1.0091,54.5 L 234.9505,738 h -0.97525 C 233.43886,738 233,738.675 233,739.5 v 1.5 h -25.42668 -25.42667 l -0.45732,-1.75 -0.45733,-1.75 -0.116,1.75 L 181,741 h -6.96862 -6.96861 l 0.5756,-1.5 c 0.31659,-0.825 0.11046,-1.5 -0.45806,-1.5 -0.56851,0 -1.23946,0.7875 -1.49098,1.75 l -0.45733,1.75 -0.116,-1.79384 -0.116,-1.79383 -1.75,0.29383 c -0.9625,0.16161 -2.05587,0.96884 -2.42971,1.79384 l -0.67972,1.5 -0.0703,-1.75 c -0.0387,-0.9625 -0.56843,-1.75 -1.17728,-1.75 -0.60884,0 -0.84797,0.675 -0.53138,1.5 0.31658,0.825 0.13972,1.5 -0.39301,1.5 C 157.43588,741 157,740.42037 157,739.71192 Z m 270.65407,-0.25281 0.59129,-1.5409 -1.37268,0.2909 c -0.75497,0.15999 -1.70329,0.74089 -2.10737,1.29089 l -0.73468,1 -0.0153,-1 c -0.009,-0.59084 -3.4891,-0.98006 -8.50538,-0.95126 l -8.49013,0.0487 0.24008,-54.54873 L 407.5,629.5 461,629.24124 514.5,628.98247 514.23328,683.99124 513.96656,739 h -1.0423 c -0.57326,0 -0.79391,-0.40189 -0.49033,-0.8931 0.31318,-0.50673 -0.85097,-0.58977 -2.69098,-0.19195 -1.78362,0.38563 -6.05545,0.66186 -9.49295,0.61385 -7.31207,-0.10213 -8.42831,1.18986 -1.5,1.73616 2.6125,0.206 -1.42338,0.45566 -8.96862,0.55479 L 476.06277,741 l 0.54412,-1.75 0.54412,-1.75 -1.12519,1.75 -1.1252,1.75 h -14.37699 -14.37698 l -0.45732,-1.75 -0.45733,-1.75 -0.116,1.94113 -0.116,1.94113 -1.58164,-1.94113 -1.58163,-1.94113 0.55025,1.75 c 0.30264,0.9625 0.11437,1.75 -0.41836,1.75 C 441.43588,741 441,740.29844 441,739.44098 c 0,-0.85746 -0.45734,-1.27636 -1.01631,-0.9309 -0.55897,0.34546 -0.75742,1.04702 -0.44098,1.55902 0.31643,0.51199 0.0988,0.9309 -0.48369,0.9309 -0.58246,0 -1.09065,-0.7875 -1.12931,-1.75 l -0.0703,-1.75 -0.85943,2 -0.85943,2 -0.0703,-1.75 c -0.0387,-0.9625 -0.50617,-1.75 -1.03891,-1.75 -0.53273,0 -0.70959,0.675 -0.39301,1.5 0.31659,0.825 0.0775,1.5 -0.53138,1.5 C 433.49814,741 433,740.29844 433,739.44098 c 0,-0.85746 -0.45734,-1.27636 -1.01631,-0.9309 -0.55897,0.34546 -0.75742,1.04702 -0.44098,1.55902 0.31643,0.51199 -0.56211,0.9309 -1.95231,0.9309 h -2.52763 z M 581,739.83673 c 0,-0.77449 -0.9,-1.40816 -2,-1.40816 -1.1,0 -2.00689,0.46607 -2.01531,1.03572 -0.008,0.56964 -0.39624,0.43478 -0.86181,-0.2997 -0.46557,-0.73448 -1.19586,-1.33541 -1.62288,-1.33541 -0.42702,0 -1.15731,0.60093 -1.62288,1.33541 -0.46557,0.73448 -0.85247,0.88541 -0.85976,0.33541 l -0.0133,-1 -10.90954,0.5 c -6.41521,0.29402 -10.67724,0.12613 -10.34567,-0.40752 0.31013,-0.49914 -0.41336,-0.65198 -1.60774,-0.33964 l -2.17161,0.56789 0.0474,-54.91037 L 547.06442,629 602.28221,628.76316 657.5,628.52633 604,628 550.5,627.47367 604.80902,627.23684 659.11803,627 658.5,628 c -0.33992,0.55 -0.24439,1 0.21229,1 0.66636,0 1.08292,97.54637 0.45731,107.08614 l -0.1696,2.58615 -4.5,-0.40243 -4.5,-0.40243 -0.0703,1.81628 -0.0703,1.81629 -0.82238,-2 -0.82238,-2 -0.65037,1.58333 c -0.74779,1.82051 -3.71335,2.13901 -4.79899,0.51542 L 642.0306,738.5 l -0.0153,1.25 c -0.0239,1.95218 -2.01155,1.46637 -2.04572,-0.5 l -0.0304,-1.75 -1.13437,1.95565 -1.13436,1.95565 -0.76494,-1.95565 -0.76494,-1.95565 -0.0856,2 -0.0856,2 -0.90471,-1.42963 c -0.4976,-0.78629 -1.61785,-1.53429 -2.48946,-1.66221 -0.8716,-0.12793 -1.35024,0.14681 -1.06365,0.61053 0.28659,0.46371 0.0637,1.12577 -0.49524,1.47123 -0.55897,0.34546 -1.02999,-0.18594 -1.04672,-1.1809 l -0.0304,-1.80902 -1.01928,1.75 -1.01928,1.75 -15.70031,-0.1571 -15.70031,-0.15711 5,-0.62872 5,-0.62872 -5.34618,-0.46418 c -2.94039,-0.25529 -5.80381,-0.18114 -6.36315,0.16478 l -1.01698,0.62895 1.36316,0.5421 c 0.74973,0.29816 -0.21185,0.52543 -2.13685,0.50505 -1.925,-0.0204 -2.7125,-0.24285 -1.75,-0.49438 2.38229,-0.62255 2.21498,-1.8821 -0.25,-1.8821 -1.1,0 -2,0.57857 -2,1.28572 0,0.70714 -0.49814,1.28571 -1.10699,1.28571 -0.60884,0 -0.86751,-0.62407 -0.57482,-1.38682 l 0.53217,-1.38681 -2.17518,0.53125 c -1.19635,0.29218 -2.73768,0.97135 -3.42518,1.50926 l -1.25,0.97801 v -1.40816 z m 144.00039,0.1044 3.8e-4,-1.44113 -16.00038,0.19351 L 693,738.88702 693.0136,684.69351 C 693.0216,654.88708 693.26903,629.6 693.56452,628.5 l 0.53726,-2 42.19908,0.49438 42.19909,0.49437 -42,0.52212 -42,0.52212 52.79384,0.23351 52.79383,0.2335 -0.16232,1.25 C 799.3169,634.93563 800.36411,737.98558 801,736 l 0.80064,-2.5 0.0997,2.05 c 0.0548,1.1275 -0.44032,2.59 -1.10032,3.25 l -1.2,1.2 h 1.7 c 2.11145,0 1.76955,5.93712 2.38985,-41.5 0.29487,-22.55 0.71028,-41.1875 0.92314,-41.41667 0.64819,-0.69786 0.43088,80.63877 -0.21998,82.33488 L 803.78602,741 771.64301,740.9211 c -17.67865,-0.0434 -31.58051,-0.30592 -30.89301,-0.58333 0.6875,-0.27741 1.25,-0.81489 1.25,-1.19438 0,-0.94103 -7.19572,-0.78423 -8.75,0.19066 -0.70667,0.44324 -1.25,0.32372 -1.25,-0.27498 0,-1.2682 -2.19925,-0.96837 -3.23469,0.44098 -0.43325,0.58971 -0.75402,0.38456 -0.7818,-0.5 l -0.0471,-1.5 -1.46819,1.94113 -1.4682,1.94113 3.9e-4,-1.44113 z M 374.07895,599.2521 374,598.0042 319.99972,598.2521 265.99943,598.5 265.99972,547.75 266,497 h 2.5 c 1.375,0 2.5,-0.47656 2.5,-1.05902 0,-0.58246 -0.45,-0.7809 -1,-0.44098 -0.55,0.33992 -1,0.21796 -1,-0.27102 0,-0.48898 -1.54138,-0.83791 -3.42528,-0.77541 -1.88391,0.0625 -3.20735,-0.23897 -2.94099,-0.66996 C 262.9001,493.35263 288.96648,493 320.55902,493 H 378 l -0.0153,1.75 -0.0153,1.75 -0.85968,-1.35676 c -1.19381,-1.88408 -1.83649,-0.29237 -1.55722,3.85676 0.12956,1.925 0.28326,24.56406 0.34155,50.30902 L 376,596.11803 l 1.25,-0.63317 c 0.6875,-0.34825 0.5355,-0.0373 -0.33777,0.69098 -0.87327,0.72829 -1.85025,1.99916 -2.17105,2.82416 l -0.58329,1.5 -0.0789,-1.2479 z m 33.16781,-52.05372 0.25324,-53.30161 -1.75138,0.45836 c -0.96326,0.25209 -1.4992,0.0503 -1.19098,-0.44839 0.32569,-0.52697 24.09459,-0.86219 56.75138,-0.80036 l 56.19098,0.10638 -2.75,1.08666 c -1.5125,0.59767 -2.75,1.47635 -2.75,1.95264 0,0.47629 0.45,0.58786 1,0.24794 l 1,-0.61803 v 50.10122 50.10122 l -1.12757,1.2078 -1.12757,1.20779 -51.54897,-0.27338 -51.54896,-0.27337 -0.82671,1.27337 c -0.45469,0.70036 -0.71274,-22.71235 -0.57346,-52.02824 z M 175.25,598.23981 130,597.97962 v -50.4392 -50.43919 l 51,-0.074 c 28.05,-0.0407 51.08367,0.0491 51.18594,0.19939 0.10226,0.15034 0.43976,22.66116 0.75,50.02404 l 0.56406,49.75071 -1,0.0146 c -0.55,0.008 -0.48109,0.34521 0.15313,0.74929 1.31279,0.83642 3.04629,0.82209 -57.40313,0.4745 z m 426,0.0104 -54.25,-0.2674 v -50.49139 -50.49139 l 2.75,-0.0153 c 1.5125,-0.008 3.39387,-0.42277 4.18081,-0.92077 l 1.43082,-0.90545 -3.93082,-0.64583 c -2.16194,-0.3552 -4.60581,-0.79051 -5.43081,-0.96735 -0.825,-0.17684 25.05,-0.25938 57.5,-0.18341 l 59,0.13812 0.26031,45.42698 c 0.14317,24.98484 0.013,45.17968 -0.28924,44.87742 -0.30226,-0.30225 -0.58609,-20.40689 -0.63074,-44.67698 L 661.75914,495 l -1.12957,3.4e-4 -1.12957,3.4e-4 v 43.74966 c 0,36.54707 -0.62929,64.68245 -1.33081,59.49966 -0.093,-0.6875 -0.95669,-1.24311 -1.91919,-1.23469 l -1.75,0.0153 L 656,598 c 0.825,0.53316 1.05,0.86772 0.5,0.74348 -0.55,-0.12424 -25.4125,-0.34623 -55.25,-0.4933 z m 139.51807,-0.01 -47.73193,-0.25968 -0.26807,-50.49055 -0.26807,-50.49054 6.19098,2.3e-4 c 4.7363,1.8e-4 10.63421,-1.82197 6.61804,-2.04462 -3.87576,-0.21487 -11.89353,-1.23389 -12.22569,-1.55382 -0.22916,-0.22073 24.52084,-0.35647 55,-0.30165 30.47917,0.0548 54.32503,0.40474 52.99081,0.77758 -1.33422,0.37285 -2.6301,1.29063 -2.87973,2.03952 l -0.45387,1.36161 1.13893,-0.7039 1.13893,-0.7039 -0.2592,50.81471 -0.2592,50.8147 -4,0.20981 c -2.2,0.11539 -4.675,0.34039 -5.5,0.5 -0.825,0.1596 -22.97937,0.17333 -49.23193,0.0305 z M 129.16325,469.50341 c 0.64138,-0.64138 7.61873,-1.58745 13.50357,-1.83098 5.30919,-0.2197 6.58703,-1.34957 1.596,-1.41119 -2.06955,-0.0256 -6.12532,-0.1752 -9.01282,-0.33256 L 130,465.64258 V 413.32129 361 l 27.25,-0.17196 c 14.9875,-0.0946 37.92536,-0.20707 50.97301,-0.25 l 23.72302,-0.078 0.5745,4 c 0.31598,2.2 0.44062,25.21969 0.27699,51.15487 -0.16364,25.93518 0.04,46.94613 0.45248,46.69099 0.4125,-0.25514 0.75,0.23766 0.75,1.09512 0,0.85746 -0.47656,1.55902 -1.05902,1.55902 -0.58246,0 -0.80012,0.41891 -0.48369,0.9309 0.31644,0.512 0.0485,1.25653 -0.59549,1.65451 l -1.17082,0.72361 0.67082,-1.08541 c 0.36895,-0.59698 0.21348,-1.36807 -0.34549,-1.71353 -0.55897,-0.34546 -1.04794,0.18594 -1.0866,1.1809 L 229.85943,468.5 229.17971,467 228.5,465.5 224,466.09981 c -2.475,0.32989 -3.7125,0.66739 -2.75,0.75 6.06805,0.52079 -0.17702,1.9617 -10.5,2.42264 -16.38101,0.73143 -82.27376,0.91797 -81.58675,0.23096 z m 285.09705,-1.69848 0.63477,-1.69506 -3.98817,-0.30494 -3.98818,-0.30493 0.058,-51.93398 c 0.0319,-28.56369 0.17391,-52.04994 0.31564,-52.19166 0.71953,-0.71953 107.78608,-0.6181 108.44112,0.10273 0.42161,0.46396 0.1924,0.51264 -0.50937,0.10819 l -1.27593,-0.73537 0.27593,52.58644 0.27594,52.58644 -1.5,-0.57064 -1.5,-0.57064 1.25,1.25924 c 0.6875,0.69259 1.24311,1.73175 1.23469,2.30925 l -0.0153,1.05 -0.73853,-1.16074 -0.73854,-1.16074 -4.49615,0.83381 c -2.47288,0.45859 -23.95865,0.88006 -47.74615,0.9366 l -43.25,0.1028 v -1.14831 -1.14831 l -1.68723,1.37245 -1.68723,1.37244 0.63476,-1.69507 z M 555,468.09952 c 0,-0.51307 0.5625,-1.18654 1.25,-1.49659 0.6875,-0.31006 -1.09071,-0.46006 -3.95158,-0.33334 l -5.20159,0.23041 -0.0718,-52.75 -0.0718,-52.75 7.77335,-0.0235 c 4.27534,-0.0129 24.89865,-0.0519 45.82958,-0.0867 20.93094,-0.0347 39.60594,-0.42498 41.5,-0.86721 1.89407,-0.44223 -18.50375,-0.78824 -45.32848,-0.7689 -26.82473,0.0193 -49.06223,-0.25483 -49.41666,-0.60927 -0.35444,-0.35444 6.51807,-0.67082 15.27223,-0.70306 70.57131,-0.25998 95.4634,-0.22412 95.80169,0.13801 0.80506,0.86179 1.29416,106.55558 0.50299,108.69433 -0.45296,1.22446 -1.27394,2.22629 -1.8244,2.22629 -0.55046,0 -0.70264,-0.7875 -0.33818,-1.75 l 0.66266,-1.75 -1.73065,1.71518 -1.73065,1.71518 -49.4634,0.051 -49.46339,0.051 v -0.93284 z M 693.06339,467.25 c -0.0349,-1.2375 -0.62589,-2.25689 -1.31339,-2.26531 l -1.25,-0.0153 1.14145,-0.73468 1.14145,-0.73469 0.10143,-50.90955 c 0.0558,-28.00025 0.21714,-51.01908 0.35855,-51.15295 0.55782,-0.52807 15.18924,-0.66279 60.00712,-0.55252 L 800,361 v 51.41667 c 0,28.27916 0.3618,51.56666 0.804,51.75 0.44221,0.18333 0.22384,1.45833 -0.48525,2.83333 l -1.28927,2.5 -0.0147,-2.37244 -0.0147,-2.37245 -1.69196,1.37245 c -0.93058,0.75484 -1.42226,0.92244 -1.09264,0.37244 l 0.59932,-1 -6.15736,0.43291 -6.15736,0.43291 3.5,0.68545 c 4.18678,0.81995 3.37925,1.09878 -4.2731,1.47548 l -5.77311,0.28418 -1.40547,-1.40546 C 774.88837,465.74551 773,465.56113 773,467.05902 c 0,0.58246 0.51953,0.73793 1.15451,0.34549 0.67883,-0.41954 0.88443,-0.27653 0.499,0.3471 -0.36052,0.58335 -1.54999,0.82672 -2.64326,0.54082 -1.09326,-0.2859 -1.7421,-0.91729 -1.44185,-1.4031 0.30024,-0.4858 -0.60482,-0.44578 -2.01125,0.0889 L 766,467.9505 l -0.0153,-1.22525 -0.0153,-1.22525 -0.87288,1.37812 c -0.48009,0.75796 -1.37319,1.0689 -1.98469,0.69098 -0.61149,-0.37792 -1.1118,-0.28303 -1.1118,0.21088 0,1.12071 -31.13544,0.87238 -32.9725,-0.26298 l -1.33652,-0.82602 0.71353,1.15451 0.71352,1.15451 h -14.5 -14.5 l -0.72306,-1.16994 -0.72306,-1.16994 1.63202,0.62627 c 0.89761,0.34444 1.94358,0.0834 2.32437,-0.58006 0.38079,-0.66348 0.37268,-0.9213 -0.018,-0.57293 -0.39071,0.34837 -2.29242,0.27659 -4.22602,-0.15951 l -3.51564,-0.7929 -0.87091,2.1595 -0.87092,2.15951 -0.0634,-2.25 z"
         id="path10423" />
      <path
         style="fill:#b05634"
         d="m 98.4923,636 c 0,-139.975 0.11595,-197.2375 0.257666,-127.25 0.141716,69.9875 0.141716,184.5125 0,254.5 C 98.60825,833.2375 98.4923,775.975 98.4923,636 Z m -67.002165,53 c 0,-108.625 0.116914,-153.0625 0.259809,-98.75 0.142895,54.3125 0.142895,143.1875 0,197.5 -0.142895,54.3125 -0.259809,9.875 -0.259809,-98.75 z M 125.01075,332.01075 123,330 v -32 -32 l 2,-2 2,-2 h 418.30887 418.30887 l 1.94113,1.41847 1.94113,1.41847 0.28833,33.58153 0.28832,33.58153 -10.28832,0.0765 c -5.65858,0.0421 -11.18833,0.36432 -12.28833,0.71609 -1.1,0.35177 -185.70766,0.77217 -410.23925,0.93424 l -408.23925,0.29466 -2.01075,-2.01075 z M 61,250.57143 V 169.14286 L 62.571429,167.57143 64.142857,166 h 38.355243 38.35525 l 0.3697,1.75 c 0.20333,0.9625 -0.55117,3.0252 -1.67668,4.58378 l -2.04637,2.83378 0.0332,4.16622 0.0332,4.16622 2.71637,4.22946 c 1.58077,2.46129 4.49331,5.16257 6.9668,6.46145 l 4.25042,2.23199 h 8.5 8.5 l 4.14255,-2.17696 C 180.32755,190.20739 187,179.82408 187,171.90365 c 0,-1.50704 0.27314,-3.45188 0.60699,-4.32186 L 188.21398,166 l 47.64301,0.0314 47.64301,0.0314 1.92085,2.63318 c 1.05646,1.44825 1.4009,2.31184 0.7654,1.91908 l -1.15544,-0.71411 -2.06793,3.2995 -2.06792,3.2995 0.43678,3.59655 c 1.33532,10.99529 13.17773,18.19472 27.07293,16.45863 l 5.37951,-0.67213 5.322,-3.19152 5.322,-3.19153 2.89653,-4.69614 2.89653,-4.69613 1.11071,-7.05387 1.11071,-7.05386 h 47.21128 47.21128 l 0.59941,1.88857 c 0.34618,1.09071 -0.31141,3.43229 -1.55653,5.54262 l -2.15595,3.65406 0.58342,3.59517 c 0.86231,5.31385 5.22421,10.92237 10.52606,13.53441 L 439.5,196.5 l 8.5,-0.012 8.5,-0.012 4,-2.14642 c 8.03682,-4.31259 12.72406,-11.85606 14.03013,-22.57958 l 0.70032,-5.75 h 47.86572 47.86573 l 0.63757,2.54029 0.63757,2.5403 -1.54061,1.7097 c -0.84733,0.94034 -1.83941,2.90722 -2.20462,4.37084 l -0.66402,2.66114 1.91931,4.33886 c 1.05562,2.38638 3.53389,5.75647 5.50727,7.4891 l 3.58796,3.15023 5.12805,1.09977 c 18.58396,3.98554 32.64431,-5.83984 34.9173,-24.40023 l 0.61232,-5 47.77766,-0.25971 47.77765,-0.25972 0.61064,1.59129 c 0.33585,0.87521 -0.3516,3.30335 -1.52766,5.39587 -5.78286,10.28922 3.52188,22.08673 18.6685,23.66986 l 5.8314,0.60951 5.72225,-1.66351 5.72225,-1.6635 3.8391,-3.4684 c 4.41938,-3.99264 8.08206,-11.73465 8.96589,-18.95169 l 0.61232,-5 47.25,-0.25979 47.25,-0.25979 0.10045,-1.74021 c 0.0553,-0.95712 0.50272,-0.0311 0.99437,2.0579 l 0.89392,3.79811 -2.13551,2.88843 -2.13551,2.88843 0.61627,3.79764 c 1.47718,9.10281 10.18899,16.0223 21.4591,17.04423 l 5.85068,0.53053 5.7546,-1.67291 5.7546,-1.67291 4.29009,-4.29009 4.29009,-4.29009 1.58073,-4.90974 c 0.8694,-2.70036 1.88054,-7.04724 2.24697,-9.65974 L 908.22709,166 H 936.11354 964 l 2,2 2,2 v 29.54545 29.54546 l -2.45455,2.45454 L 963.09091,234 H 534.99579 106.90068 l -2.75565,1.425 c -1.51561,0.78376 -3.29327,2.60493 -3.95034,4.04706 L 99,242.09411 V 287.04705 332 H 80 61 Z"
         id="path10421" />
      <path
         style="fill:#060503"
         d="M 97.5,972.36777 C 69.605175,966.48449 43.970375,939.97735 34.767021,907.5 L 32.5,899.5 32.243507,521.08438 31.987014,142.66876 33.484051,140.384 c 0.82337,-1.25662 3.188792,-2.75459 5.256493,-3.32881 L 42.5,136.01115 91.75,136.00558 141,136 v 15 15 H 102.57143 64.142857 l -1.57818,1.57818 -1.578181,1.57818 0.256752,362.67182 L 61.5,894.5 l 3.337411,8.7302 c 4.216489,11.02976 9.774561,19.65197 17.410158,27.00831 l 5.987269,5.7683 7.578485,3.7466 7.578487,3.74659 71.55409,0.5 c 39.35476,0.275 224.7791,0.5 412.0541,0.5 h 340.5 l 5.22513,-2.14448 c 16.9546,-6.95843 31.22794,-24.65395 34.25265,-42.46506 L 968.06301,893.5 967.78151,579.16937 967.5,264.83874 965.55887,263.41937 963.61774,262 H 545.30887 127 l -2,2 -2,2 v 31.80887 31.80887 l 1.41938,1.94113 1.41938,1.94113 406.22271,0.5 406.22271,0.5 1.9772,2.64826 1.9772,2.64825 -0.0577,4.18333 c -0.0676,4.89941 -2.08627,8.40278 -6.01122,10.43245 l -2.81155,1.4539 -52.67903,0.72136 -52.67904,0.72136 V 412.45445 467.6 l 1.2,1.2 1.2,1.2 h 51.7349 c 30.45843,0 52.76831,0.3929 54.2477,0.95537 7.38522,2.80785 7.61968,16.11541 0.35705,20.26499 L 934.5,492.5 l -53,0.5 -53,0.5 -0.25875,53.88699 -0.25876,53.88699 1.2004,1.44638 1.20039,1.44639 49.55836,-0.70804 49.55836,-0.70805 4.21339,1.15336 c 5.15769,1.41184 7.28661,4.24109 7.28661,9.68363 v 4.14263 l -2.07755,2.64118 c -1.14266,1.45265 -3.05516,3.20084 -4.25,3.88486 L 932.5,625.5 l -52,0.5 -52,0.5 -0.2582,57.27163 -0.2582,57.27164 2.53426,0.96352 2.53426,0.96352 47.76206,-0.23515 47.76206,-0.23516 2.79541,1.82778 c 1.53747,1.00528 3.48935,3.48028 4.33752,5.5 l 1.54211,3.67222 -1.37564,3.9674 -1.37564,3.9674 -3.39788,2.2826 -3.39789,2.2826 h -49.2931 c -29.00167,0 -49.52765,0.37952 -49.8629,0.92196 -0.31339,0.50708 -0.81669,25.23668 -1.11845,54.95468 l -0.54866,54.03272 1.08161,2.02099 1.0816,2.02099 55.95913,0.27433 55.95914,0.27433 3.09285,3.09338 3.09285,3.09338 0.53777,4.00939 0.53777,4.00939 -2.06877,4.6768 -2.06877,4.67681 -4.29315,1.94846 -4.29315,1.94847 -413.28212,0.022 -413.28212,0.022 -3.40146,-1.42122 c -1.89116,-0.79018 -4.09698,-2.7662 -4.96788,-4.45034 L 99,899.09932 V 570.5 241.90068 l 1.425,-2.75565 c 0.78376,-1.51561 2.60493,-3.29327 4.04706,-3.95034 L 107.09411,234 h 427.9984 427.9984 l 2.45454,-2.45455 L 968,229.09091 V 199.54545 170 l -2,-2 -2,-2 h -27.88646 -27.88645 l -0.66624,4.75 c -0.36643,2.6125 -1.37757,6.95938 -2.24697,9.65974 l -1.58073,4.90974 -4.29009,4.29009 -4.29009,4.29009 -5.7546,1.67291 -5.7546,1.67291 -5.85068,-0.53053 c -3.21787,-0.29178 -7.97223,-1.58451 -10.56523,-2.87273 L 862.5133,191.5 l -2.82957,-4.08418 c -1.55626,-2.2463 -3.0646,-5.8463 -3.35186,-8 l -0.5223,-3.91582 2.18722,-2.7747 2.18722,-2.77469 3.27603,2.02469 c 6.47631,4.00258 14.99949,2.2372 18.81452,-3.89701 L 884.5,164.5 v -60 -60 l -2.34654,-3.774244 c -1.2906,-2.075835 -3.63076,-4.438335 -5.20034,-5.25 L 874.09932,34 h -6.87535 -6.87534 l -2.40579,-2.560843 -2.40579,-2.560843 0.10495,-4.002373 0.10495,-4.002372 2.83614,-2.960293 c 5.36592,-5.600821 19.92192,-7.66421 29.95359,-4.246079 l 4.89295,1.667198 4.64192,4.641914 4.64191,4.641914 2.14327,5.728401 L 907,36.075025 v 6.855499 6.855498 l 1.58179,0.606989 C 909.45177,50.726855 919.37412,51 930.63145,51 h 20.46787 l 3.02912,1.566418 c 8.02818,4.151533 7.99499,22.975884 -0.0489,27.727519 L 951.19142,82 H 929.09571 907 v 26.95912 26.95912 l 42.47825,0.29088 42.47825,0.29088 2.77175,2.77273 2.77175,2.77273 V 522.77273 903.5 l -1.91011,7 c -7.84718,28.75758 -28.41644,52.34367 -53.49046,61.33575 L 937.5,973.4852 521,973.66467 104.5,973.84414 Z M 238,822.9966 V 764 H 180.5 123 l 0.0136,56.25 c 0.0142,58.34414 0.11198,60.44394 2.83898,60.94644 0.90605,0.16696 26.50987,0.41453 56.89737,0.55016 l 55.25,0.24659 V 822.9966 Z M 378.06574,878.96482 380,877.92963 v -55.35782 -55.35783 l -1.58179,-0.60699 C 377.54823,766.27314 350.7818,766 318.93726,766 H 261.0381 l -0.55445,2.25 c -0.30495,1.2375 -0.42602,26.45409 -0.26905,56.03687 l 0.2854,53.78687 1.5,0.94782 1.5,0.94781 56.31574,0.0153 56.31574,0.0153 1.93426,-1.03518 z m 139,0 L 519,877.92963 V 823.16482 768.4 l -1.2,-1.2 -1.2,-1.2 h -56.26482 -56.26481 l -1.03519,1.93426 L 402,769.86852 v 52.84323 52.84324 l 1.5567,2.2225 1.55671,2.22251 h 55.00904 55.00903 z M 662.31998,878.75 664.02221,877.5 663.76111,822 663.5,766.5 602.75,766.24225 542,765.98451 l 0.0251,3.75774 c 0.0138,2.06676 -0.0755,27.00404 -0.19844,55.41618 l -0.22354,51.65842 1.32089,1.59158 L 544.2449,880 h 58.18643 58.18642 l 1.70224,-1.25 z M 803.42857,878.42857 805,876.85714 v -54.39338 -54.39339 l -1.97982,-1.05957 -1.97982,-1.05957 -55.93738,0.27439 c -66.46925,0.32604 -56.86052,-9.05932 -57.23411,55.90365 l -0.31415,54.62927 1.34508,1.62073 1.34509,1.62073 h 55.80613 55.80612 z M 380.00023,685.25 380,626 H 319.5 259 v 58.83333 C 259,754.71526 248.57053,744.5 319.91786,744.5 h 60.08261 z m -142.92594,55.67169 c 0.51934,-0.81626 0.80258,-25.48241 0.66512,-57.92169 L 237.5,626.5 l -56.22886,-0.25832 -56.22886,-0.25831 -0.54774,2.25831 c -0.30125,1.24208 -0.42326,26.99509 -0.27113,57.22892 l 0.27659,54.97061 2.14177,1.06765 2.14177,1.06765 53.6931,-0.11656 53.6931,-0.11657 z m 280.88467,0.51997 1.05772,-1.05834 -0.25834,-56.94166 L 518.5,626.5 l -56.88751,-0.25832 -56.88752,-0.25832 -1.36248,1.13077 L 402,628.24489 V 683.62244 739 l 2.07019,2.07019 2.0702,2.0702 55.38043,-0.3202 55.38042,-0.32019 z m 144.31177,0.30834 1.65299,-1.25 0.16149,-56.14591 c 0.0888,-30.88025 -0.14557,-56.64275 -0.52088,-57.25 L 662.88197,626 H 603 543.11803 l -0.80901,1.25 c -0.92807,1.43395 -1.70687,106.60758 -0.82515,111.43298 0.78983,4.3225 -2.89513,4.07109 61.575,4.20102 L 660.61774,743 Z M 802.70395,741.92246 805,741.0495 804.9847,684.77475 c -0.008,-30.95111 -0.37478,-56.84097 -0.81413,-57.53302 l -0.79882,-1.25827 -57.43587,0.25827 L 688.5,626.5 l -0.25832,56.88751 -0.25832,56.88752 1.15234,1.38848 1.15234,1.38849 55.05994,-0.1283 c 30.28296,-0.0706 56.09315,-0.52112 57.35597,-1.00124 z M 236.25,602.84455 238,601.92963 V 549.0466 c 0,-29.08566 -0.27314,-53.59483 -0.60699,-54.46481 L 236.78602,493 H 181 125.21398 l -0.60699,1.58179 C 124.27314,495.45177 124,519.71963 124,548.51036 v 52.34678 l 1.39049,1.39049 1.39049,1.3905 53.85951,0.0607 c 30.75823,0.0346 54.61012,-0.33175 55.60951,-0.85425 z m 142.70834,-0.40333 1.05922,-1.05878 -0.25878,-53.94122 L 379.5,493.5 321.05814,493.24186 c -69.59216,-0.30739 -60.1955,-8.88092 -60.14051,54.87235 l 0.046,53.38579 1.36827,1 1.36827,1 h 57.09945 57.09945 l 1.05923,-1.05878 z m 139.14037,-0.13993 c 0.54223,-0.54223 0.81278,-23.02854 0.66007,-54.86007 L 518.5,493.5 l -57.43587,-0.25827 -57.43587,-0.25827 -0.79882,1.25827 c -0.43935,0.69205 -0.80571,24.96363 -0.81413,53.93684 L 402,600.85714 l 1.66032,1.66032 1.66031,1.66031 55.92962,-0.47882 c 31.94764,-0.2735 56.32361,-0.87281 56.84846,-1.39766 z m 145.16007,-0.17842 c 0.41733,-0.40724 0.64233,-25.01398 0.5,-54.68165 L 663.5,493.5 602.75,493.24225 542,492.98451 l -0.25,35.75774 c -0.1375,19.66676 -0.25,44.21222 -0.25,54.54545 v 18.7877 l 1.5,0.95569 1.5,0.95569 59,-0.56174 c 32.45,-0.30896 59.34145,-0.89494 59.75878,-1.30217 z m 140.49985,0.32526 1.25862,-0.39198 -0.25862,-54.27808 L 804.5,493.5 747.05827,493.24173 c -31.59295,-0.14205 -57.82738,0.12738 -58.29874,0.59874 -1.04821,1.04821 -2.35119,100.19216 -1.38449,105.34514 l 0.69044,3.68035 1.71726,0.40883 c 2.14127,0.50977 112.24896,-0.28884 113.97589,-0.82666 z M 378.8,469.8 380,468.6 V 413 357.4 l -1.2,-1.2 -1.2,-1.2 H 318.925 260.25 l -0.57531,2.87656 c -0.31642,1.58211 -0.48517,27.24848 -0.375,57.03637 l 0.20031,54.1598 1.5,0.94832 1.5,0.94832 57.55,0.0153 57.55,0.0153 1.2,-1.2 z M 236.42857,468.42857 238,466.85714 v -54.30612 -54.30613 l -1.41926,-1.17788 -1.41925,-1.17788 -54.6178,0.30544 -54.6178,0.30543 -0.94763,1.5 -0.94763,1.5 -0.0153,53.67857 -0.0153,53.67857 1.57143,1.57143 1.5714,1.57143 H 181 234.85714 Z M 517.8,468.8 519,467.6 v -54.76482 -54.76481 l -2.20631,-1.18078 -2.20631,-1.18078 -55.40814,0.52176 -55.40814,0.52176 -0.88452,1.37383 c -0.4929,0.76559 -0.77429,25.40882 -0.63555,55.6607 l 0.24897,54.28686 1.5,0.94783 1.5,0.94782 55.55,0.0153 55.55,0.0153 1.2,-1.2 z m 145.08616,-0.16283 1.13105,-1.36283 L 663.7586,412.38717 663.5,357.5 602.75,357.24225 542,356.98451 l -0.0797,3.75774 c -0.5181,24.4301 -0.31957,105.30077 0.26269,107.00775 l 0.7675,2.25 h 59.4023 59.40231 l 1.13105,-1.36283 z M 803.96482,468.06574 805,466.13148 v -52.98395 c 0,-29.14118 -0.27314,-53.69576 -0.60699,-54.56574 L 803.78602,357 h -57.8477 -57.84769 l -0.5904,3.25 c -0.32472,1.7875 -0.45761,26.7791 -0.29531,55.53689 l 0.29508,52.28689 1.5,0.9478 1.5,0.94779 56.21482,0.0153 56.21481,0.0153 1.03519,-1.93426 z M 152.5,196.12766 c -12.77453,-3.37705 -19.99829,-18.48967 -12.0078,-25.12119 l 1.3899,-1.15351 2.98903,2.20988 2.98903,2.20989 h 3.85588 c 5.0445,0 9.89444,-2.58594 12.32444,-6.57128 l 1.95204,-3.20145 0.004,-60.29966 0.004,-60.29966 -1.39762,-2.7027 c -0.76869,-1.486486 -2.35651,-3.570481 -3.52848,-4.631101 l -2.13086,-1.9284 -8.50384,-0.446337 -8.50384,-0.446338 -1.46768,-2.095408 C 139.66046,30.497921 139,27.870774 139,25.81229 v -3.742698 l 3.09412,-3.524005 3.09412,-3.524006 5.08738,-1.510791 c 14.73602,-4.3761288 28.96819,0.725283 35.3921,12.686029 L 187.4418,29.5 187.9709,40 188.5,50.5 236.05781,51 283.61563,51.5 283.88926,66.75 284.1629,82 H 236.08145 188 v 27 27 h 48 48 v 15 15 h -47.89301 -47.89301 l -0.60699,1.58179 C 187.27314,168.45177 187,170.39661 187,171.90365 c 0,7.8759 -6.71947,18.3821 -14.19625,22.19647 l -3.98135,2.03113 -6.6612,0.39474 c -3.66366,0.21711 -8.0112,0.0379 -9.6612,-0.39833 z m 142.31587,-0.64427 c -10.63153,-3.41702 -16.5139,-14.54581 -11.78677,-22.29927 l 2.02163,-3.31588 3.34267,2.06588 L 291.73607,174 H 296 c 5.35762,0 10.26863,-2.93898 12.39354,-7.41689 L 310,163.19774 V 104.75615 46.314567 L 307.6955,41.907284 305.391,37.5 301.9455,35.751554 298.5,34.003108 291.82258,34.001554 285.14516,34 283.07258,31.365141 c -2.61425,-3.323477 -2.62789,-6.942052 -0.0422,-11.18317 l 2.02293,-3.318029 4.72333,-2.094162 c 2.73728,-1.213614 7.71754,-2.288017 11.84429,-2.555197 l 7.12096,-0.461035 5.24938,1.743562 c 6.28919,2.088934 11.66931,7.143605 14.94939,14.045082 L 331.297,32.5 l 0.1015,8.5 0.1015,8.5 1.5,0.679715 c 0.825,0.373843 22.0875,0.711343 47.25,0.75 L 426,51 V 66.5 82 h -47 -47 v 27 27 h 47 47 v 11.875 c 0,6.53125 0.28125,13.28125 0.625,15 L 427.25,166 h -47.48732 -47.48732 l -0.65509,5.57378 c -1.24541,10.59651 -5.45451,17.38534 -13.49083,21.75926 l -5.11107,2.78178 -6.75918,0.43704 -6.75919,0.43703 z m 142.96029,-0.0159 c -11.26205,-3.60664 -17.02175,-16.00288 -10.93058,-23.52515 l 1.87094,-2.31052 2.7766,2.18407 2.7766,2.18407 h 5.23028 5.23028 l 2.65484,-2.0883 c 1.46016,-1.14856 3.32085,-3.37621 4.13486,-4.95034 L 453,164.09932 V 105.01754 45.935763 l -1.37112,-3.217882 C 450.87476,40.948047 449.03878,38.375 447.54891,37 l -2.70884,-2.5 -8.35552,-0.349967 -8.35551,-0.349966 -1.79539,-1.983882 -1.79539,-1.983883 0.10513,-4.009249 c 0.14253,-5.43593 2.96177,-8.879577 9.44944,-11.542331 l 5.40717,-2.219279 6.38398,-0.03072 c 8.75922,-0.04215 13.49053,1.601392 19.08205,6.628645 l 4.76236,4.281771 2.18858,5.087493 2.18858,5.087493 0.59576,8.441938 0.59575,8.441938 1.10147,0.02287 c 0.60581,0.01258 7.17647,0.184222 14.60147,0.381427 7.425,0.197205 28.4625,0.411913 46.75,0.477127 L 571,51 V 66.5 82 h -48 -48 v 26.9903 26.99031 l 47.75,0.25969 47.75,0.2597 0.27673,14.75 0.27674,14.75 h -47.91151 -47.91151 l -0.70032,5.75 c -1.31075,10.76193 -6.06362,18.38397 -14.03013,22.49967 l -4,2.0665 -7,0.33208 -7,0.33208 -4.72384,-1.5128 z m 144.92768,0.10784 c -5.75801,-1.54827 -10.26856,-5.53315 -12.91994,-11.41424 l -1.95611,-4.33886 0.6481,-2.58221 c 0.35645,-1.42022 1.44137,-3.59071 2.41093,-4.82331 l 1.76285,-2.24109 3.268,2.06915 3.268,2.06915 4.55057,-0.0688 4.55056,-0.0688 2.6066,-1.90928 c 1.43363,-1.0501 3.3934,-3.45228 4.35505,-5.33818 l 1.74844,-3.42892 -0.0204,-58.5 -0.0204,-58.5 -1.83681,-4 c -1.01025,-2.2 -2.82583,-4.880295 -4.03464,-5.956211 l -2.19783,-1.956211 -6.6934,-0.339704 c -3.68137,-0.186837 -7.73555,-0.560058 -9.0093,-0.82938 l -2.3159,-0.489677 -1.42416,-3.408511 c -2.25485,-5.39662 0.0776,-10.569642 6.44951,-14.303811 l 4.4669,-2.617776 8.66569,-0.414312 8.66569,-0.414312 4.40409,1.956789 c 6.49686,2.886637 10.46863,6.68375 13.52453,12.929785 l 2.72264,5.564861 0.57845,9.139235 L 619.5,50.5 667.09935,51 714.6987,51.5 714.82674,66.75 714.95477,82 H 666.97738 619 v 27 27 h 47.39301 47.39301 l 0.46287,1.25 c 0.25458,0.6875 0.55844,7.43312 0.67523,14.99026 l 0.21236,13.74026 -47.81824,0.25974 L 619.5,166.5 l -0.61232,5 c -2.32008,18.94489 -17.55804,29.08366 -36.18384,24.07537 z M 728.5,196.06493 c -12.32178,-2.99972 -19.58767,-14.48826 -14.4709,-22.88081 l 2.02163,-3.31588 3.34267,2.06588 3.34267,2.06588 4.38196,-0.0147 c 5.55762,-0.0187 8.7252,-1.6289 11.60195,-5.89771 L 741,164.70423 V 105.32 45.935763 l -1.37112,-3.217882 c -0.75412,-1.769834 -2.56279,-4.316967 -4.01927,-5.660294 l -2.64814,-2.442413 -8.56972,-0.569042 -8.56972,-0.569042 -1.41102,-1.929675 c -3.82984,-5.237624 -1.02633,-13.171238 5.90507,-16.710639 l 4.18392,-2.136447 6.70159,-0.481068 c 8.23173,-0.590908 14.73477,0.952856 20.38255,4.838631 l 4.29787,2.957012 3.09285,6.282462 3.09284,6.282463 0.61468,8.710085 0.61468,8.710086 1.60147,0.0889 c 3.23233,0.179432 30.42095,0.488284 61.35147,0.696928 L 858,51 V 66.5 82 H 810.5 763 v 27 27 h 47.5 47.5 v 14.99021 14.99021 l -47.25,0.25979 -47.25,0.25979 -0.61232,5 C 760.66219,189.67252 745.81334,200.27984 728.5,196.06493 Z M 89.304334,80.044003 c -1.757616,-1.071687 -4.007616,-3.187714 -5,-4.702283 L 82.5,72.587958 V 65.86731 59.146661 l 2.096399,-2.823331 c 1.153019,-1.552831 3.178019,-3.379196 4.5,-4.058588 L 91.5,51.029484 116.25,51.014742 141,51 V 66.5 82 L 116.75,81.9963 92.5,81.9926 89.304334,80.044079 Z"
         id="path10419" />
    </g>
  </g>
</svg>
